ISO-10303-21;
HEADER;
FILE_DESCRIPTION (( 'STEP AP214' ),
    '1' );
FILE_NAME ('8X10 Heating Pad.STEP',
    '2023-07-04T22:20:10',
    ( '' ),
    ( '' ),
    'SwSTEP 2.0',
    'SolidWorks 2019',
    '' );
FILE_SCHEMA (( 'AUTOMOTIVE_DESIGN' ));
ENDSEC;

DATA;
#1 = DIRECTION ( 'NONE',  ( 0.000000000000000000, 0.000000000000000000, 1.000000000000000000 ) ) ;
#2 = ADVANCED_FACE ( 'NONE', ( #303 ), #684, .T. ) ;
#3 = FILL_AREA_STYLE ('',( #574 ) ) ;
#4 = SURFACE_STYLE_FILL_AREA ( #854 ) ;
#5 = AXIS2_PLACEMENT_3D ( 'NONE', #224, #796, #584 ) ;
#6 = CARTESIAN_POINT ( 'NONE',  ( -1.999999999999999112, 0.000000000000000000, 0.08999999999999999667 ) ) ;
#7 = FACE_OUTER_BOUND ( 'NONE', #1238, .T. ) ;
#8 = DIRECTION ( 'NONE',  ( 0.000000000000000000, -0.000000000000000000, -1.000000000000000000 ) ) ;
#9 = VECTOR ( 'NONE', #512, 39.37007874015748143 ) ;
#10 = CARTESIAN_POINT ( 'NONE',  ( -1.999999999999999112, -3.500000000000000000, 0.04000000000000000083 ) ) ;
#11 = FACE_OUTER_BOUND ( 'NONE', #176, .T. ) ;
#12 = UNCERTAINTY_MEASURE_WITH_UNIT (LENGTH_MEASURE( 1.000000000000000082E-05 ), #108, 'distance_accuracy_value', 'NONE');
#13 = CARTESIAN_POINT ( 'NONE',  ( -2.999999999999999112, -4.000000000000000000, 0.1880000000000000282 ) ) ;
#14 = LENGTH_MEASURE_WITH_UNIT ( LENGTH_MEASURE( 0.02539999999999999897 ), #218 );
#15 = DIRECTION ( 'NONE',  ( -0.000000000000000000, -1.000000000000000000, -0.000000000000000000 ) ) ;
#16 = LINE ( 'NONE', #385, #945 ) ;
#17 = MECHANICAL_DESIGN_GEOMETRIC_PRESENTATION_REPRESENTATION (  '', ( #652 ), #183 ) ;
#18 = VECTOR ( 'NONE', #91, 39.37007874015748143 ) ;
#19 = ORIENTED_EDGE ( 'NONE', *, *, #861, .T. ) ;
#20 = EDGE_CURVE ( 'NONE', #750, #147, #878, .T. ) ;
#21 =( CONVERSION_BASED_UNIT ( 'INCH', #116 ) LENGTH_UNIT ( ) NAMED_UNIT ( #394 ) );
#22 = DIRECTION ( 'NONE',  ( -0.000000000000000000, 1.000000000000000000, -0.000000000000000000 ) ) ;
#23 = AXIS2_PLACEMENT_3D ( 'NONE', #480, #371, #472 ) ;
#24 = EDGE_CURVE ( 'NONE', #1031, #1013, #142, .T. ) ;
#25 = LINE ( 'NONE', #283, #1195 ) ;
#26 = MECHANICAL_DESIGN_GEOMETRIC_PRESENTATION_REPRESENTATION (  '', ( #1058 ), #934 ) ;
#27 =( LENGTH_UNIT ( ) NAMED_UNIT ( * ) SI_UNIT ( $, .METRE. ) );
#28 = CARTESIAN_POINT ( 'NONE',  ( -2.449999999999998845, -4.563639610306790217, 0.08750000000000036915 ) ) ;
#29 =( CONVERSION_BASED_UNIT ( 'INCH', #965 ) LENGTH_UNIT ( ) NAMED_UNIT ( #1082 ) );
#30 = UNCERTAINTY_MEASURE_WITH_UNIT (LENGTH_MEASURE( 1.000000000000000082E-05 ), #291, 'distance_accuracy_value', 'NONE');
#31 = DIRECTION ( 'NONE',  ( 0.000000000000000000, 0.000000000000000000, 1.000000000000000000 ) ) ;
#32 = DIRECTION ( 'NONE',  ( 1.000000000000000000, 0.000000000000000000, 0.000000000000000000 ) ) ;
#33 = EDGE_CURVE ( 'NONE', #114, #1006, #338, .T. ) ;
#34 = DIRECTION ( 'NONE',  ( 0.000000000000000000, -0.000000000000000000, 1.000000000000000000 ) ) ;
#35 = VERTEX_POINT ( 'NONE', #899 ) ;
#36 = MECHANICAL_DESIGN_GEOMETRIC_PRESENTATION_REPRESENTATION (  '', ( #1214 ), #885 ) ;
#37 = CARTESIAN_POINT ( 'NONE',  ( -2.449999999999998845, -4.000000000000000000, 0.06499999999999998834 ) ) ;
#38 = DIRECTION ( 'NONE',  ( -0.000000000000000000, -1.000000000000000000, -0.000000000000000000 ) ) ;
#39 = LINE ( 'NONE', #1187, #403 ) ;
#40 = COLOUR_RGB ( '',0.2980392156862745057, 0.2980392156862745057, 0.2980392156862745057 ) ;
#41 = ORIENTED_EDGE ( 'NONE', *, *, #709, .F. ) ;
#42 = UNCERTAINTY_MEASURE_WITH_UNIT (LENGTH_MEASURE( 1.000000000000000082E-05 ), #132, 'distance_accuracy_value', 'NONE');
#43 = DIRECTION ( 'NONE',  ( 0.000000000000000000, -1.000000000000000000, 0.000000000000000000 ) ) ;
#44 = PRESENTATION_LAYER_ASSIGNMENT (  '', '', ( #1222 ) ) ;
#45 = FACE_OUTER_BOUND ( 'NONE', #267, .T. ) ;
#46 = CARTESIAN_POINT ( 'NONE',  ( -2.374999999999999112, -4.500000000000000000, 0.06499999999999998834 ) ) ;
#47 = EDGE_CURVE ( 'NONE', #1120, #155, #1123, .T. ) ;
#48 = AXIS2_PLACEMENT_3D ( 'NONE', #67, #185, #935 ) ;
#49 = DIRECTION ( 'NONE',  ( 0.000000000000000000, 0.000000000000000000, 1.000000000000000000 ) ) ;
#50 = ADVANCED_FACE ( 'NONE', ( #804 ), #420, .T. ) ;
#51 = CIRCLE ( 'NONE', #662, 0.02250000000000037387 ) ;
#52 = VERTEX_POINT ( 'NONE', #66 ) ;
#53 = FILL_AREA_STYLE_COLOUR ( '', #710 ) ;
#54 = CARTESIAN_POINT ( 'NONE',  ( -2.374999999999999112, -4.000000000000000000, 0.06499999999999998834 ) ) ;
#55 = DIRECTION ( 'NONE',  ( 1.000000000000000000, 0.000000000000000000, 0.000000000000000000 ) ) ;
#56 = FILL_AREA_STYLE ('',( #1021 ) ) ;
#57 = ORIENTED_EDGE ( 'NONE', *, *, #812, .T. ) ;
#58 =( NAMED_UNIT ( * ) SI_UNIT ( $, .STERADIAN. ) SOLID_ANGLE_UNIT ( ) );
#59 =( NAMED_UNIT ( * ) PLANE_ANGLE_UNIT ( ) SI_UNIT ( $, .RADIAN. ) );
#60 = ADVANCED_FACE ( 'NONE', ( #1113 ), #1205, .T. ) ;
#61 = CARTESIAN_POINT ( 'NONE',  ( -2.374999999999999112, -4.000000000000000000, 0.04249999999999990591 ) ) ;
#62 = DIRECTION ( 'NONE',  ( 1.000000000000000000, 0.000000000000000000, 0.000000000000000000 ) ) ;
#63 = VERTEX_POINT ( 'NONE', #1095 ) ;
#64 = ORIENTED_EDGE ( 'NONE', *, *, #647, .T. ) ;
#65 = ORIENTED_EDGE ( 'NONE', *, *, #862, .F. ) ;
#66 = CARTESIAN_POINT ( 'NONE',  ( -2.549999999999998934, -4.000000000000000000, 0.04249999999999964223 ) ) ;
#67 = CARTESIAN_POINT ( 'NONE',  ( -4.999999999999999112, 3.999999999999999556, 0.04000000000000000083 ) ) ;
#68 = CARTESIAN_POINT ( 'NONE',  ( -4.999999999999999112, 3.999999999999999556, 0.000000000000000000 ) ) ;
#69 = VERTEX_POINT ( 'NONE', #675 ) ;
#70 = VERTEX_POINT ( 'NONE', #1059 ) ;
#71 = VERTEX_POINT ( 'NONE', #463 ) ;
#72 = SURFACE_STYLE_USAGE ( .BOTH. , #162 ) ;
#73 = VECTOR ( 'NONE', #417, 39.37007874015748143 ) ;
#74 = PRESENTATION_STYLE_ASSIGNMENT (( #171 ) ) ;
#75 = FILL_AREA_STYLE ('',( #1023 ) ) ;
#76 = ORIENTED_EDGE ( 'NONE', *, *, #112, .F. ) ;
#77 = DIRECTION ( 'NONE',  ( 0.000000000000000000, 0.000000000000000000, 1.000000000000000000 ) ) ;
#78 = ORIENTED_EDGE ( 'NONE', *, *, #1170, .F. ) ;
#79 = VECTOR ( 'NONE', #526, 39.37007874015748143 ) ;
#80 = ORIENTED_EDGE ( 'NONE', *, *, #827, .F. ) ;
#81 =( NAMED_UNIT ( * ) PLANE_ANGLE_UNIT ( ) SI_UNIT ( $, .RADIAN. ) );
#82 =( NAMED_UNIT ( * ) PLANE_ANGLE_UNIT ( ) SI_UNIT ( $, .RADIAN. ) );
#83 = EDGE_CURVE ( 'NONE', #996, #221, #551, .T. ) ;
#84 = CARTESIAN_POINT ( 'NONE',  ( -4.999999999999999112, -4.000000000000000000, 0.000000000000000000 ) ) ;
#85 = ORIENTED_EDGE ( 'NONE', *, *, #1229, .T. ) ;
#86 = ORIENTED_EDGE ( 'NONE', *, *, #364, .F. ) ;
#87 = CIRCLE ( 'NONE', #766, 0.02250000000000008590 ) ;
#88 = DIRECTION ( 'NONE',  ( 0.000000000000000000, 0.000000000000000000, 1.000000000000000000 ) ) ;
#89 = LENGTH_MEASURE_WITH_UNIT ( LENGTH_MEASURE( 0.02539999999999999897 ), #1012 );
#90 = ORIENTED_EDGE ( 'NONE', *, *, #101, .F. ) ;
#91 = DIRECTION ( 'NONE',  ( 5.463695987328525451E-16, 1.000000000000000000, 0.000000000000000000 ) ) ;
#92 = VERTEX_POINT ( 'NONE', #865 ) ;
#93 =( CONVERSION_BASED_UNIT ( 'INCH', #363 ) LENGTH_UNIT ( ) NAMED_UNIT ( #794 ) );
#94 = CARTESIAN_POINT ( 'NONE',  ( -2.549999999999998934, -4.500000000000000000, 0.06499999999999998834 ) ) ;
#95 = CARTESIAN_POINT ( 'NONE',  ( -2.999999999999999112, -4.000000000000000000, 0.1880000000000000282 ) ) ;
#96 = SURFACE_SIDE_STYLE ('',( #784 ) ) ;
#97 = LINE ( 'NONE', #1070, #929 ) ;
#98 = AXIS2_PLACEMENT_3D ( 'NONE', #13, #570, #31 ) ;
#99 = SURFACE_STYLE_USAGE ( .BOTH. , #145 ) ;
#100 = AXIS2_PLACEMENT_3D ( 'NONE', #937, #648, #353 ) ;
#101 = EDGE_CURVE ( 'NONE', #1001, #1202, #1142, .T. ) ;
#102 =( GEOMETRIC_REPRESENTATION_CONTEXT ( 3 ) GLOBAL_UNCERTAINTY_ASSIGNED_CONTEXT ( ( #485 ) ) GLOBAL_UNIT_ASSIGNED_CONTEXT ( ( #1010, #918, #58 ) ) REPRESENTATION_CONTEXT ( 'NONE', 'WORKASPACE' ) );
#103 = FILL_AREA_STYLE ('',( #946 ) ) ;
#104 = AXIS2_PLACEMENT_3D ( 'NONE', #989, #1103, #249 ) ;
#105 = DIRECTION ( 'NONE',  ( -0.000000000000000000, -1.000000000000000000, -0.000000000000000000 ) ) ;
#106 = PLANE ( 'NONE',  #1076 ) ;
#107 = VECTOR ( 'NONE', #844, 39.37007874015748143 ) ;
#108 =( CONVERSION_BASED_UNIT ( 'INCH', #481 ) LENGTH_UNIT ( ) NAMED_UNIT ( #499 ) );
#109 = AXIS2_PLACEMENT_3D ( 'NONE', #1126, #157, #438 ) ;
#110 =( NAMED_UNIT ( * ) SI_UNIT ( $, .STERADIAN. ) SOLID_ANGLE_UNIT ( ) );
#111 = CYLINDRICAL_SURFACE ( 'NONE', #152, 0.02250000000000033917 ) ;
#112 = EDGE_CURVE ( 'NONE', #644, #275, #295, .T. ) ;
#113 = SURFACE_STYLE_USAGE ( .BOTH. , #763 ) ;
#114 = VERTEX_POINT ( 'NONE', #206 ) ;
#115 = DIRECTION ( 'NONE',  ( -0.000000000000000000, 1.000000000000000000, -0.000000000000000000 ) ) ;
#116 = LENGTH_MEASURE_WITH_UNIT ( LENGTH_MEASURE( 0.02539999999999999897 ), #216 );
#117 = CARTESIAN_POINT ( 'NONE',  ( -2.999999999999999112, -3.500000000000000000, 0.1880000000000000282 ) ) ;
#118 = FILL_AREA_STYLE ('',( #955 ) ) ;
#119 = MECHANICAL_DESIGN_GEOMETRIC_PRESENTATION_REPRESENTATION (  '', ( #276 ), #814 ) ;
#120 =( LENGTH_UNIT ( ) NAMED_UNIT ( * ) SI_UNIT ( $, .METRE. ) );
#121 = CARTESIAN_POINT ( 'NONE',  ( -2.449999999999998845, -4.500000000000000000, 0.06499999999999998834 ) ) ;
#122 = CARTESIAN_POINT ( 'NONE',  ( -2.624999999999999112, -4.500000000000000000, 0.08750000000000032752 ) ) ;
#123 =( NAMED_UNIT ( * ) PLANE_ANGLE_UNIT ( ) SI_UNIT ( $, .RADIAN. ) );
#124 = ORIENTED_EDGE ( 'NONE', *, *, #278, .F. ) ;
#125 = STYLED_ITEM ( 'NONE', ( #760 ), #1034 ) ;
#126 = DIRECTION ( 'NONE',  ( 0.000000000000000000, -0.000000000000000000, -1.000000000000000000 ) ) ;
#127 = LINE ( 'NONE', #1184, #384 ) ;
#128 = CARTESIAN_POINT ( 'NONE',  ( -1.999999999999999112, -2.000000000000000000, 0.04000000000000000083 ) ) ;
#129 = EDGE_LOOP ( 'NONE', ( #425, #926, #86, #492 ) ) ;
#130 = LENGTH_MEASURE_WITH_UNIT ( LENGTH_MEASURE( 0.02539999999999999897 ), #230 );
#131 = CARTESIAN_POINT ( 'NONE',  ( -1.999999999999999112, -2.000000000000000000, 0.08999999999999999667 ) ) ;
#132 =( CONVERSION_BASED_UNIT ( 'INCH', #1094 ) LENGTH_UNIT ( ) NAMED_UNIT ( #477 ) );
#133 = PRESENTATION_STYLE_ASSIGNMENT (( #979 ) ) ;
#134 = COLOUR_RGB ( '',0.2980392156862745057, 0.2980392156862745057, 0.2980392156862745057 ) ;
#135 = DIRECTION ( 'NONE',  ( -0.000000000000000000, -1.000000000000000000, -0.000000000000000000 ) ) ;
#136 = PRESENTATION_LAYER_ASSIGNMENT (  '', '', ( #652 ) ) ;
#137 = VECTOR ( 'NONE', #115, 39.37007874015748143 ) ;
#138 = DIRECTION ( 'NONE',  ( 0.000000000000000000, -1.000000000000000000, 0.000000000000000000 ) ) ;
#139 = DIMENSIONAL_EXPONENTS ( 1.000000000000000000, 0.000000000000000000, 0.000000000000000000, 0.000000000000000000, 0.000000000000000000, 0.000000000000000000, 0.000000000000000000 ) ;
#140 = PLANE ( 'NONE',  #5 ) ;
#141 = ORIENTED_EDGE ( 'NONE', *, *, #807, .F. ) ;
#142 = LINE ( 'NONE', #1213, #1091 ) ;
#143 = PRESENTATION_LAYER_ASSIGNMENT (  '', '', ( #676 ) ) ;
#144 = LINE ( 'NONE', #412, #1237 ) ;
#145 = SURFACE_SIDE_STYLE ('',( #995 ) ) ;
#146 = AXIS2_PLACEMENT_3D ( 'NONE', #809, #1000, #822 ) ;
#147 = VERTEX_POINT ( 'NONE', #1064 ) ;
#148 =( LENGTH_UNIT ( ) NAMED_UNIT ( * ) SI_UNIT ( $, .METRE. ) );
#149 = SURFACE_STYLE_USAGE ( .BOTH. , #711 ) ;
#150 = ADVANCED_FACE ( 'NONE', ( #280 ), #1147, .T. ) ;
#151 = DIRECTION ( 'NONE',  ( 0.000000000000000000, 0.000000000000000000, 1.000000000000000000 ) ) ;
#152 = AXIS2_PLACEMENT_3D ( 'NONE', #603, #596, #1188 ) ;
#153 = EDGE_CURVE ( 'NONE', #69, #898, #951, .T. ) ;
#154 = ORIENTED_EDGE ( 'NONE', *, *, #484, .T. ) ;
#155 = VERTEX_POINT ( 'NONE', #762 ) ;
#156 = EDGE_LOOP ( 'NONE', ( #642, #64, #723, #817 ) ) ;
#157 = DIRECTION ( 'NONE',  ( -0.000000000000000000, -1.000000000000000000, -0.000000000000000000 ) ) ;
#158 = EDGE_LOOP ( 'NONE', ( #730, #76, #1102, #222 ) ) ;
#159 = EDGE_CURVE ( 'NONE', #777, #92, #1173, .T. ) ;
#160 = EDGE_LOOP ( 'NONE', ( #80, #482 ) ) ;
#161 = EDGE_LOOP ( 'NONE', ( #534, #823 ) ) ;
#162 = SURFACE_SIDE_STYLE ('',( #629 ) ) ;
#163 = CYLINDRICAL_SURFACE ( 'NONE', #266, 0.02250000000000033917 ) ;
#164 = PRESENTATION_STYLE_ASSIGNMENT (( #372 ) ) ;
#165 = DIRECTION ( 'NONE',  ( -0.000000000000000000, -0.000000000000000000, -1.000000000000000000 ) ) ;
#166 =( GEOMETRIC_REPRESENTATION_CONTEXT ( 3 ) GLOBAL_UNCERTAINTY_ASSIGNED_CONTEXT ( ( #274 ) ) GLOBAL_UNIT_ASSIGNED_CONTEXT ( ( #651, #81, #646 ) ) REPRESENTATION_CONTEXT ( 'NONE', 'WORKASPACE' ) );
#167 = ORIENTED_EDGE ( 'NONE', *, *, #203, .T. ) ;
#168 = ORIENTED_EDGE ( 'NONE', *, *, #991, .F. ) ;
#169 = EDGE_LOOP ( 'NONE', ( #970, #432, #433, #337 ) ) ;
#170 = AXIS2_PLACEMENT_3D ( 'NONE', #920, #624, #1005 ) ;
#171 = SURFACE_STYLE_USAGE ( .BOTH. , #1011 ) ;
#172 =( CONVERSION_BASED_UNIT ( 'INCH', #89 ) LENGTH_UNIT ( ) NAMED_UNIT ( #600 ) );
#173 = LINE ( 'NONE', #1024, #1186 ) ;
#174 = EDGE_LOOP ( 'NONE', ( #208, #818, #154, #349 ) ) ;
#175 = PRESENTATION_LAYER_ASSIGNMENT (  '', '', ( #1146 ) ) ;
#176 = EDGE_LOOP ( 'NONE', ( #392, #829, #650, #576 ) ) ;
#177 = DIRECTION ( 'NONE',  ( -0.000000000000000000, 1.000000000000000000, -0.000000000000000000 ) ) ;
#178 = ADVANCED_FACE ( 'NONE', ( #768 ), #863, .T. ) ;
#179 = ORIENTED_EDGE ( 'NONE', *, *, #944, .F. ) ;
#180 = DIRECTION ( 'NONE',  ( -0.000000000000000000, 1.000000000000000000, -0.000000000000000000 ) ) ;
#181 = ORIENTED_EDGE ( 'NONE', *, *, #884, .T. ) ;
#182 = ORIENTED_EDGE ( 'NONE', *, *, #407, .T. ) ;
#183 =( GEOMETRIC_REPRESENTATION_CONTEXT ( 3 ) GLOBAL_UNCERTAINTY_ASSIGNED_CONTEXT ( ( #977 ) ) GLOBAL_UNIT_ASSIGNED_CONTEXT ( ( #975, #123, #1088 ) ) REPRESENTATION_CONTEXT ( 'NONE', 'WORKASPACE' ) );
#184 = COLOUR_RGB ( '',0.9882352941176471006, 0.7372549019607843590, 0.5176470588235293491 ) ;
#185 = DIRECTION ( 'NONE',  ( 0.000000000000000000, -1.000000000000000000, 0.000000000000000000 ) ) ;
#186 = AXIS2_PLACEMENT_3D ( 'NONE', #582, #15, #669 ) ;
#187 = CARTESIAN_POINT ( 'NONE',  ( -2.624999999999999112, -2.000000000000000000, 0.06499999999999998834 ) ) ;
#188 = ORIENTED_EDGE ( 'NONE', *, *, #971, .T. ) ;
#189 = ADVANCED_FACE ( 'NONE', ( #314 ), #857, .T. ) ;
#190 =( CONVERSION_BASED_UNIT ( 'INCH', #658 ) LENGTH_UNIT ( ) NAMED_UNIT ( #139 ) );
#191 = CARTESIAN_POINT ( 'NONE',  ( -2.624999999999999112, -4.500000000000000000, 0.06499999999999998834 ) ) ;
#192 =( NAMED_UNIT ( * ) PLANE_ANGLE_UNIT ( ) SI_UNIT ( $, .RADIAN. ) );
#193 = CARTESIAN_POINT ( 'NONE',  ( -4.999999999999999112, 3.999999999999999556, 0.04000000000000000083 ) ) ;
#194 = STYLED_ITEM ( 'NONE', ( #952 ), #287 ) ;
#195 = DIRECTION ( 'NONE',  ( 1.000000000000000000, 0.000000000000000000, 0.000000000000000000 ) ) ;
#196 = MECHANICAL_DESIGN_GEOMETRIC_PRESENTATION_REPRESENTATION (  '', ( #1121 ), #1220 ) ;
#197 = DIRECTION ( 'NONE',  ( 0.000000000000000000, 0.000000000000000000, 1.000000000000000000 ) ) ;
#198 = PRESENTATION_LAYER_ASSIGNMENT (  '', '', ( #988 ) ) ;
#199 = SURFACE_STYLE_FILL_AREA ( #207 ) ;
#200 = DIRECTION ( 'NONE',  ( -0.000000000000000000, -0.000000000000000000, -1.000000000000000000 ) ) ;
#201 = SURFACE_STYLE_USAGE ( .BOTH. , #493 ) ;
#202 = CIRCLE ( 'NONE', #1227, 0.02250000000000008590 ) ;
#203 = EDGE_CURVE ( 'NONE', #1025, #625, #1165, .T. ) ;
#204 = CARTESIAN_POINT ( 'NONE',  ( -2.549999999999998934, -4.000000000000000000, 0.06499999999999998834 ) ) ;
#205 = ADVANCED_FACE ( 'NONE', ( #1055, #486, #967, #210, #7 ), #393, .F. ) ;
#206 = CARTESIAN_POINT ( 'NONE',  ( -2.374999999999999112, -3.500000000000000000, 0.04249999999999990591 ) ) ;
#207 = FILL_AREA_STYLE ('',( #380 ) ) ;
#208 = ORIENTED_EDGE ( 'NONE', *, *, #819, .F. ) ;
#209 = VECTOR ( 'NONE', #395, 39.37007874015748143 ) ;
#210 = FACE_BOUND ( 'NONE', #746, .T. ) ;
#211 = SURFACE_SIDE_STYLE ('',( #294 ) ) ;
#212 = CARTESIAN_POINT ( 'NONE',  ( -2.549999999999998934, -4.563639610306790217, 0.06499999999999998834 ) ) ;
#213 = FACE_OUTER_BOUND ( 'NONE', #1119, .T. ) ;
#214 = FILL_AREA_STYLE_COLOUR ( '', #1007 ) ;
#215 = CARTESIAN_POINT ( 'NONE',  ( -4.999999999999999112, -4.000000000000000000, 0.000000000000000000 ) ) ;
#216 =( LENGTH_UNIT ( ) NAMED_UNIT ( * ) SI_UNIT ( $, .METRE. ) );
#217 = CARTESIAN_POINT ( 'NONE',  ( -1.999999999999999334, -4.000000000000000000, 0.1880000000000000282 ) ) ;
#218 =( LENGTH_UNIT ( ) NAMED_UNIT ( * ) SI_UNIT ( $, .METRE. ) );
#219 = DIMENSIONAL_EXPONENTS ( 1.000000000000000000, 0.000000000000000000, 0.000000000000000000, 0.000000000000000000, 0.000000000000000000, 0.000000000000000000, 0.000000000000000000 ) ;
#220 = DIMENSIONAL_EXPONENTS ( 1.000000000000000000, 0.000000000000000000, 0.000000000000000000, 0.000000000000000000, 0.000000000000000000, 0.000000000000000000, 0.000000000000000000 ) ;
#221 = VERTEX_POINT ( 'NONE', #299 ) ;
#222 = ORIENTED_EDGE ( 'NONE', *, *, #690, .T. ) ;
#223 = DIRECTION ( 'NONE',  ( 0.000000000000000000, 1.000000000000000000, 0.000000000000000000 ) ) ;
#224 = CARTESIAN_POINT ( 'NONE',  ( -1.999999999999999334, -4.000000000000000000, 0.1880000000000000282 ) ) ;
#225 = PRESENTATION_STYLE_ASSIGNMENT (( #149 ) ) ;
#226 = AXIS2_PLACEMENT_3D ( 'NONE', #1056, #1046, #8 ) ;
#227 = ORIENTED_EDGE ( 'NONE', *, *, #690, .F. ) ;
#228 = EDGE_CURVE ( 'NONE', #1179, #803, #378, .T. ) ;
#229 = AXIS2_PLACEMENT_3D ( 'NONE', #938, #279, #558 ) ;
#230 =( LENGTH_UNIT ( ) NAMED_UNIT ( * ) SI_UNIT ( $, .METRE. ) );
#231 = DIRECTION ( 'NONE',  ( -0.000000000000000000, -0.000000000000000000, -1.000000000000000000 ) ) ;
#232 =( LENGTH_UNIT ( ) NAMED_UNIT ( * ) SI_UNIT ( $, .METRE. ) );
#233 = SURFACE_STYLE_FILL_AREA ( #903 ) ;
#234 = CARTESIAN_POINT ( 'NONE',  ( 5.000000000000000888, 3.999999999999999556, 0.04000000000000000083 ) ) ;
#235 =( NAMED_UNIT ( * ) SI_UNIT ( $, .STERADIAN. ) SOLID_ANGLE_UNIT ( ) );
#236 = VECTOR ( 'NONE', #597, 39.37007874015748143 ) ;
#237 = AXIS2_PLACEMENT_3D ( 'NONE', #465, #1029, #659 ) ;
#238 =( NAMED_UNIT ( * ) PLANE_ANGLE_UNIT ( ) SI_UNIT ( $, .RADIAN. ) );
#239 = LINE ( 'NONE', #1099, #209 ) ;
#240 = ORIENTED_EDGE ( 'NONE', *, *, #1096, .F. ) ;
#241 = ADVANCED_FACE ( 'NONE', ( #695 ), #111, .T. ) ;
#242 = DIRECTION ( 'NONE',  ( -0.000000000000000000, 1.000000000000000000, -0.000000000000000000 ) ) ;
#243 = DIRECTION ( 'NONE',  ( 5.463695987328525451E-16, 1.000000000000000000, 0.000000000000000000 ) ) ;
#244 =( GEOMETRIC_REPRESENTATION_CONTEXT ( 3 ) GLOBAL_UNCERTAINTY_ASSIGNED_CONTEXT ( ( #779 ) ) GLOBAL_UNIT_ASSIGNED_CONTEXT ( ( #401, #59, #1108 ) ) REPRESENTATION_CONTEXT ( 'NONE', 'WORKASPACE' ) );
#245 = EDGE_CURVE ( 'NONE', #419, #777, #144, .T. ) ;
#246 = CARTESIAN_POINT ( 'NONE',  ( -2.374999999999999112, -2.000000000000000000, 0.06499999999999998834 ) ) ;
#247 = ORIENTED_EDGE ( 'NONE', *, *, #1096, .T. ) ;
#248 = VERTEX_POINT ( 'NONE', #422 ) ;
#249 = DIRECTION ( 'NONE',  ( 0.000000000000000000, 0.000000000000000000, 1.000000000000000000 ) ) ;
#250 = EDGE_CURVE ( 'NONE', #1122, #724, #611, .T. ) ;
#251 = PLANE ( 'NONE',  #170 ) ;
#252 =( GEOMETRIC_REPRESENTATION_CONTEXT ( 3 ) GLOBAL_UNCERTAINTY_ASSIGNED_CONTEXT ( ( #1041 ) ) GLOBAL_UNIT_ASSIGNED_CONTEXT ( ( #514, #329, #1193 ) ) REPRESENTATION_CONTEXT ( 'NONE', 'WORKASPACE' ) );
#253 = ORIENTED_EDGE ( 'NONE', *, *, #1014, .F. ) ;
#254 = ORIENTED_EDGE ( 'NONE', *, *, #986, .F. ) ;
#255 = ORIENTED_EDGE ( 'NONE', *, *, #33, .T. ) ;
#256 = FILL_AREA_STYLE ('',( #726 ) ) ;
#257 = PRESENTATION_LAYER_ASSIGNMENT (  '', '', ( #194 ) ) ;
#258 = MECHANICAL_DESIGN_GEOMETRIC_PRESENTATION_REPRESENTATION (  '', ( #309 ), #461 ) ;
#259 = LINE ( 'NONE', #633, #73 ) ;
#260 = ORIENTED_EDGE ( 'NONE', *, *, #1030, .F. ) ;
#261 = VERTEX_POINT ( 'NONE', #707 ) ;
#262 = CIRCLE ( 'NONE', #949, 0.02250000000000008590 ) ;
#263 = ORIENTED_EDGE ( 'NONE', *, *, #362, .T. ) ;
#264 = CARTESIAN_POINT ( 'NONE',  ( -2.999999999999999112, -2.000000000000000000, 0.04000000000000000083 ) ) ;
#265 = CYLINDRICAL_SURFACE ( 'NONE', #229, 0.02250000000000008590 ) ;
#266 = AXIS2_PLACEMENT_3D ( 'NONE', #741, #177, #543 ) ;
#267 = EDGE_LOOP ( 'NONE', ( #57, #444, #636, #713 ) ) ;
#268 = VERTEX_POINT ( 'NONE', #61 ) ;
#269 = ADVANCED_FACE ( 'NONE', ( #319 ), #404, .T. ) ;
#270 = CIRCLE ( 'NONE', #375, 0.02250000000000037387 ) ;
#271 = ORIENTED_EDGE ( 'NONE', *, *, #862, .T. ) ;
#272 = EDGE_LOOP ( 'NONE', ( #816, #474, #342, #719 ) ) ;
#273 = CARTESIAN_POINT ( 'NONE',  ( 5.000000000000000888, -4.000000000000000000, 0.04000000000000000083 ) ) ;
#274 = UNCERTAINTY_MEASURE_WITH_UNIT (LENGTH_MEASURE( 1.000000000000000082E-05 ), #651, 'distance_accuracy_value', 'NONE');
#275 = VERTEX_POINT ( 'NONE', #10 ) ;
#276 = STYLED_ITEM ( 'NONE', ( #435 ), #60 ) ;
#277 = FACE_OUTER_BOUND ( 'NONE', #626, .T. ) ;
#278 = EDGE_CURVE ( 'NONE', #803, #700, #568, .T. ) ;
#279 = DIRECTION ( 'NONE',  ( -0.000000000000000000, 1.000000000000000000, -0.000000000000000000 ) ) ;
#280 = FACE_OUTER_BOUND ( 'NONE', #272, .T. ) ;
#281 = DIRECTION ( 'NONE',  ( -0.000000000000000000, -0.000000000000000000, -1.000000000000000000 ) ) ;
#282 = DIRECTION ( 'NONE',  ( -0.000000000000000000, -1.000000000000000000, -0.000000000000000000 ) ) ;
#283 = CARTESIAN_POINT ( 'NONE',  ( -2.999999999999999112, -4.000000000000000000, 0.04000000000000000083 ) ) ;
#284 = DIRECTION ( 'NONE',  ( -0.000000000000000000, 1.000000000000000000, -0.000000000000000000 ) ) ;
#285 = AXIS2_PLACEMENT_3D ( 'NONE', #94, #460, #640 ) ;
#286 = FILL_AREA_STYLE ('',( #1157 ) ) ;
#287 = ADVANCED_FACE ( 'NONE', ( #473 ), #947, .T. ) ;
#288 = FACE_BOUND ( 'NONE', #1127, .T. ) ;
#289 = AXIS2_PLACEMENT_3D ( 'NONE', #881, #38, #789 ) ;
#290 = PRESENTATION_LAYER_ASSIGNMENT (  '', '', ( #1101 ) ) ;
#291 =( CONVERSION_BASED_UNIT ( 'INCH', #321 ) LENGTH_UNIT ( ) NAMED_UNIT ( #436 ) );
#292 =( LENGTH_UNIT ( ) NAMED_UNIT ( * ) SI_UNIT ( $, .METRE. ) );
#293 = CARTESIAN_POINT ( 'NONE',  ( 5.000000000000000888, -4.000000000000000000, 0.04000000000000000083 ) ) ;
#294 = SURFACE_STYLE_FILL_AREA ( #118 ) ;
#295 = LINE ( 'NONE', #682, #715 ) ;
#296 = SURFACE_STYLE_USAGE ( .BOTH. , #376 ) ;
#297 = VECTOR ( 'NONE', #62, 39.37007874015748143 ) ;
#298 = DIRECTION ( 'NONE',  ( -1.000000000000000000, 0.000000000000000000, 0.000000000000000000 ) ) ;
#299 = CARTESIAN_POINT ( 'NONE',  ( -2.624999999999999112, -3.500000000000000000, 0.04249999999999964223 ) ) ;
#300 = CARTESIAN_POINT ( 'NONE',  ( -4.999999999999999112, 3.999999999999999556, 0.04000000000000000083 ) ) ;
#301 = LINE ( 'NONE', #572, #1129 ) ;
#302 = PRESENTATION_LAYER_ASSIGNMENT (  '', '', ( #1214 ) ) ;
#303 = FACE_OUTER_BOUND ( 'NONE', #335, .T. ) ;
#304 = VERTEX_POINT ( 'NONE', #464 ) ;
#305 = DIRECTION ( 'NONE',  ( 1.000000000000000000, 0.000000000000000000, 0.000000000000000000 ) ) ;
#306 = UNCERTAINTY_MEASURE_WITH_UNIT (LENGTH_MEASURE( 1.000000000000000082E-05 ), #554, 'distance_accuracy_value', 'NONE');
#307 = SURFACE_SIDE_STYLE ('',( #972 ) ) ;
#308 = CARTESIAN_POINT ( 'NONE',  ( -2.624999999999999112, -2.000000000000000000, 0.08750000000000032752 ) ) ;
#309 = STYLED_ITEM ( 'NONE', ( #454 ), #2 ) ;
#310 = EDGE_CURVE ( 'NONE', #398, #361, #16, .T. ) ;
#311 = DIRECTION ( 'NONE',  ( 0.000000000000000000, 1.000000000000000000, -0.000000000000000000 ) ) ;
#312 = VECTOR ( 'NONE', #305, 39.37007874015748143 ) ;
#313 = ORIENTED_EDGE ( 'NONE', *, *, #1030, .T. ) ;
#314 = FACE_OUTER_BOUND ( 'NONE', #635, .T. ) ;
#315 = LINE ( 'NONE', #702, #441 ) ;
#316 = CYLINDRICAL_SURFACE ( 'NONE', #104, 0.02250000000000033917 ) ;
#317 = COLOUR_RGB ( '',0.2980392156862745057, 0.2980392156862745057, 0.2980392156862745057 ) ;
#318 = AXIS2_PLACEMENT_3D ( 'NONE', #665, #282, #1 ) ;
#319 = FACE_OUTER_BOUND ( 'NONE', #415, .T. ) ;
#320 = DIRECTION ( 'NONE',  ( 0.000000000000000000, 0.000000000000000000, -1.000000000000000000 ) ) ;
#321 = LENGTH_MEASURE_WITH_UNIT ( LENGTH_MEASURE( 0.02539999999999999897 ), #771 );
#322 = LINE ( 'NONE', #894, #1124 ) ;
#323 = DIMENSIONAL_EXPONENTS ( 1.000000000000000000, 0.000000000000000000, 0.000000000000000000, 0.000000000000000000, 0.000000000000000000, 0.000000000000000000, 0.000000000000000000 ) ;
#324 = ADVANCED_FACE ( 'NONE', ( #213 ), #772, .T. ) ;
#325 = LINE ( 'NONE', #896, #745 ) ;
#326 = ORIENTED_EDGE ( 'NONE', *, *, #24, .F. ) ;
#327 = SURFACE_STYLE_USAGE ( .BOTH. , #614 ) ;
#328 = CIRCLE ( 'NONE', #289, 0.02250000000000033917 ) ;
#329 =( NAMED_UNIT ( * ) PLANE_ANGLE_UNIT ( ) SI_UNIT ( $, .RADIAN. ) );
#330 = CARTESIAN_POINT ( 'NONE',  ( -2.999999999999999112, -3.500000000000000000, 0.04000000000000000083 ) ) ;
#331 = COLOUR_RGB ( '',0.2980392156862745057, 0.2980392156862745057, 0.2980392156862745057 ) ;
#332 = ORIENTED_EDGE ( 'NONE', *, *, #414, .T. ) ;
#333 = DIRECTION ( 'NONE',  ( 0.000000000000000000, 0.000000000000000000, 1.000000000000000000 ) ) ;
#334 = LINE ( 'NONE', #330, #594 ) ;
#335 = EDGE_LOOP ( 'NONE', ( #41, #933, #905, #271 ) ) ;
#336 = ORIENTED_EDGE ( 'NONE', *, *, #944, .T. ) ;
#337 = ORIENTED_EDGE ( 'NONE', *, *, #827, .T. ) ;
#338 = LINE ( 'NONE', #1198, #79 ) ;
#339 = FILL_AREA_STYLE ('',( #1230 ) ) ;
#340 = CARTESIAN_POINT ( 'NONE',  ( -4.999999999999999112, -4.000000000000000000, 0.04000000000000000083 ) ) ;
#341 = ORIENTED_EDGE ( 'NONE', *, *, #1057, .F. ) ;
#342 = ORIENTED_EDGE ( 'NONE', *, *, #835, .T. ) ;
#343 = VERTEX_POINT ( 'NONE', #529 ) ;
#344 = DIRECTION ( 'NONE',  ( 0.000000000000000000, 1.000000000000000000, 0.000000000000000000 ) ) ;
#345 = MECHANICAL_DESIGN_GEOMETRIC_PRESENTATION_REPRESENTATION (  '', ( #194 ), #1116 ) ;
#346 = AXIS2_PLACEMENT_3D ( 'NONE', #212, #284, #567 ) ;
#347 =( CONVERSION_BASED_UNIT ( 'INCH', #852 ) LENGTH_UNIT ( ) NAMED_UNIT ( #323 ) );
#348 = FACE_OUTER_BOUND ( 'NONE', #1073, .T. ) ;
#349 = ORIENTED_EDGE ( 'NONE', *, *, #410, .T. ) ;
#350 = ORIENTED_EDGE ( 'NONE', *, *, #902, .T. ) ;
#351 = SURFACE_SIDE_STYLE ('',( #657 ) ) ;
#352 = STYLED_ITEM ( 'NONE', ( #1027 ), #456 ) ;
#353 = DIRECTION ( 'NONE',  ( 0.000000000000000000, -0.000000000000000000, -1.000000000000000000 ) ) ;
#354 = DIRECTION ( 'NONE',  ( -0.000000000000000000, -1.000000000000000000, -0.000000000000000000 ) ) ;
#355 = ORIENTED_EDGE ( 'NONE', *, *, #580, .F. ) ;
#356 = UNCERTAINTY_MEASURE_WITH_UNIT (LENGTH_MEASURE( 1.000000000000000082E-05 ), #674, 'distance_accuracy_value', 'NONE');
#357 = ORIENTED_EDGE ( 'NONE', *, *, #1177, .F. ) ;
#358 = CIRCLE ( 'NONE', #508, 0.02250000000000008590 ) ;
#359 = SURFACE_SIDE_STYLE ('',( #631 ) ) ;
#360 = CARTESIAN_POINT ( 'NONE',  ( -1.999999999999999112, 0.000000000000000000, 0.04000000000000000083 ) ) ;
#361 = VERTEX_POINT ( 'NONE', #264 ) ;
#362 = EDGE_CURVE ( 'NONE', #427, #63, #668, .T. ) ;
#363 = LENGTH_MEASURE_WITH_UNIT ( LENGTH_MEASURE( 0.02539999999999999897 ), #637 );
#364 = EDGE_CURVE ( 'NONE', #419, #724, #453, .T. ) ;
#365 = CYLINDRICAL_SURFACE ( 'NONE', #833, 0.02250000000000008590 ) ;
#366 = DIRECTION ( 'NONE',  ( 0.000000000000000000, 0.000000000000000000, 1.000000000000000000 ) ) ;
#367 = EDGE_LOOP ( 'NONE', ( #1137, #355, #1002, #587 ) ) ;
#368 = CIRCLE ( 'NONE', #237, 0.02250000000000008590 ) ;
#369 = PLANE ( 'NONE',  #226 ) ;
#370 = ADVANCED_FACE ( 'NONE', ( #1241 ), #365, .T. ) ;
#371 = DIRECTION ( 'NONE',  ( -0.000000000000000000, 1.000000000000000000, -0.000000000000000000 ) ) ;
#372 = SURFACE_STYLE_USAGE ( .BOTH. , #1135 ) ;
#373 = CARTESIAN_POINT ( 'NONE',  ( -2.374999999999999112, -3.500000000000000000, 0.08750000000000007772 ) ) ;
#374 = DIRECTION ( 'NONE',  ( -0.000000000000000000, -1.000000000000000000, -0.000000000000000000 ) ) ;
#375 = AXIS2_PLACEMENT_3D ( 'NONE', #429, #1109, #151 ) ;
#376 = SURFACE_SIDE_STYLE ('',( #4 ) ) ;
#377 = DIRECTION ( 'NONE',  ( 0.000000000000000000, 0.000000000000000000, 1.000000000000000000 ) ) ;
#378 = LINE ( 'NONE', #293, #621 ) ;
#379 = VECTOR ( 'NONE', #242, 39.37007874015748143 ) ;
#380 = FILL_AREA_STYLE_COLOUR ( '', #134 ) ;
#381 = CARTESIAN_POINT ( 'NONE',  ( -2.624999999999999112, -4.500000000000000000, 0.04249999999999964223 ) ) ;
#382 = ADVANCED_FACE ( 'NONE', ( #840 ), #316, .T. ) ;
#383 = FACE_OUTER_BOUND ( 'NONE', #129, .T. ) ;
#384 = VECTOR ( 'NONE', #891, 39.37007874015748143 ) ;
#385 = CARTESIAN_POINT ( 'NONE',  ( -2.999999999999999112, -2.000000000000000000, 0.08999999999999999667 ) ) ;
#386 =( NAMED_UNIT ( * ) SI_UNIT ( $, .STERADIAN. ) SOLID_ANGLE_UNIT ( ) );
#387 = DIRECTION ( 'NONE',  ( 0.000000000000000000, 0.000000000000000000, -1.000000000000000000 ) ) ;
#388 = UNCERTAINTY_MEASURE_WITH_UNIT (LENGTH_MEASURE( 1.000000000000000082E-05 ), #503, 'distance_accuracy_value', 'NONE');
#389 = DIRECTION ( 'NONE',  ( 0.000000000000000000, -1.000000000000000000, 0.000000000000000000 ) ) ;
#390 = CARTESIAN_POINT ( 'NONE',  ( -2.549999999999998934, -4.000000000000000000, 0.06499999999999998834 ) ) ;
#391 = DIRECTION ( 'NONE',  ( 0.000000000000000000, 1.000000000000000000, 0.000000000000000000 ) ) ;
#392 = ORIENTED_EDGE ( 'NONE', *, *, #1177, .T. ) ;
#394 = DIMENSIONAL_EXPONENTS ( 1.000000000000000000, 0.000000000000000000, 0.000000000000000000, 0.000000000000000000, 0.000000000000000000, 0.000000000000000000, 0.000000000000000000 ) ;
#393 = PLANE ( 'NONE',  #728 ) ;
#395 = DIRECTION ( 'NONE',  ( -0.000000000000000000, 1.000000000000000000, -0.000000000000000000 ) ) ;
#396 = EDGE_CURVE ( 'NONE', #398, #419, #813, .T. ) ;
#397 = CARTESIAN_POINT ( 'NONE',  ( -2.999999999999999112, -3.500000000000000000, 0.04000000000000000083 ) ) ;
#398 = VERTEX_POINT ( 'NONE', #800 ) ;
#399 = LINE ( 'NONE', #880, #1089 ) ;
#400 = AXIS2_PLACEMENT_3D ( 'NONE', #795, #138, #1060 ) ;
#401 =( CONVERSION_BASED_UNIT ( 'INCH', #1081 ) LENGTH_UNIT ( ) NAMED_UNIT ( #598 ) );
#402 = ORIENTED_EDGE ( 'NONE', *, *, #769, .T. ) ;
#403 = VECTOR ( 'NONE', #243, 39.37007874015748143 ) ;
#404 = PLANE ( 'NONE',  #400 ) ;
#405 = LINE ( 'NONE', #978, #236 ) ;
#406 =( NAMED_UNIT ( * ) SI_UNIT ( $, .STERADIAN. ) SOLID_ANGLE_UNIT ( ) );
#407 = EDGE_CURVE ( 'NONE', #268, #898, #262, .T. ) ;
#408 = PLANE ( 'NONE',  #607 ) ;
#409 = CIRCLE ( 'NONE', #1084, 0.02250000000000033917 ) ;
#410 = EDGE_CURVE ( 'NONE', #733, #644, #39, .T. ) ;
#411 = VECTOR ( 'NONE', #165, 39.37007874015748143 ) ;
#412 = CARTESIAN_POINT ( 'NONE',  ( -2.999999999999999112, -1.499999999999999778, 0.08999999999999999667 ) ) ;
#413 = CARTESIAN_POINT ( 'NONE',  ( -1.999999999999999112, -1.499999999999999778, 0.08999999999999999667 ) ) ;
#414 = EDGE_CURVE ( 'NONE', #361, #777, #322, .T. ) ;
#415 = EDGE_LOOP ( 'NONE', ( #917, #843 ) ) ;
#416 = DIRECTION ( 'NONE',  ( 0.000000000000000000, -1.000000000000000000, 0.000000000000000000 ) ) ;
#417 = DIRECTION ( 'NONE',  ( -0.000000000000000000, -0.000000000000000000, -1.000000000000000000 ) ) ;
#418 = SURFACE_SIDE_STYLE ('',( #897 ) ) ;
#419 = VERTEX_POINT ( 'NONE', #507 ) ;
#420 = CYLINDRICAL_SURFACE ( 'NONE', #655, 0.02250000000000033917 ) ;
#421 =( GEOMETRIC_REPRESENTATION_CONTEXT ( 3 ) GLOBAL_UNCERTAINTY_ASSIGNED_CONTEXT ( ( #1050 ) ) GLOBAL_UNIT_ASSIGNED_CONTEXT ( ( #1047, #192, #1240 ) ) REPRESENTATION_CONTEXT ( 'NONE', 'WORKASPACE' ) );
#422 = CARTESIAN_POINT ( 'NONE',  ( -2.549999999999998934, -4.000000000000000000, 0.08750000000000032752 ) ) ;
#423 = DIRECTION ( 'NONE',  ( -1.000000000000000000, 0.000000000000000000, -0.000000000000000000 ) ) ;
#424 = ORIENTED_EDGE ( 'NONE', *, *, #484, .F. ) ;
#425 = ORIENTED_EDGE ( 'NONE', *, *, #1223, .T. ) ;
#426 = EDGE_CURVE ( 'NONE', #69, #738, #202, .T. ) ;
#427 = VERTEX_POINT ( 'NONE', #805 ) ;
#428 = LINE ( 'NONE', #1207, #107 ) ;
#429 = CARTESIAN_POINT ( 'NONE',  ( -2.449999999999998845, -4.000000000000000000, 0.06499999999999998834 ) ) ;
#430 = VERTEX_POINT ( 'NONE', #128 ) ;
#431 = CIRCLE ( 'NONE', #318, 0.02250000000000033917 ) ;
#432 = ORIENTED_EDGE ( 'NONE', *, *, #426, .F. ) ;
#433 = ORIENTED_EDGE ( 'NONE', *, *, #153, .T. ) ;
#434 = ADVANCED_FACE ( 'NONE', ( #783 ), #906, .T. ) ;
#435 = PRESENTATION_STYLE_ASSIGNMENT (( #72 ) ) ;
#436 = DIMENSIONAL_EXPONENTS ( 1.000000000000000000, 0.000000000000000000, 0.000000000000000000, 0.000000000000000000, 0.000000000000000000, 0.000000000000000000, 0.000000000000000000 ) ;
#437 = ORIENTED_EDGE ( 'NONE', *, *, #1071, .T. ) ;
#438 = DIRECTION ( 'NONE',  ( 0.000000000000000000, 0.000000000000000000, 1.000000000000000000 ) ) ;
#439 = ORIENTED_EDGE ( 'NONE', *, *, #812, .F. ) ;
#440 = ORIENTED_EDGE ( 'NONE', *, *, #47, .F. ) ;
#441 = VECTOR ( 'NONE', #231, 39.37007874015748143 ) ;
#442 = FACE_OUTER_BOUND ( 'NONE', #910, .T. ) ;
#443 = AXIS2_PLACEMENT_3D ( 'NONE', #1155, #685, #693 ) ;
#444 = ORIENTED_EDGE ( 'NONE', *, *, #765, .F. ) ;
#445 = ORIENTED_EDGE ( 'NONE', *, *, #664, .T. ) ;
#446 = EDGE_CURVE ( 'NONE', #803, #1013, #888, .T. ) ;
#447 =( NAMED_UNIT ( * ) SI_UNIT ( $, .STERADIAN. ) SOLID_ANGLE_UNIT ( ) );
#448 = LINE ( 'NONE', #360, #1196 ) ;
#449 = EDGE_LOOP ( 'NONE', ( #1083, #260, #922, #1008 ) ) ;
#450 = ADVANCED_FACE ( 'NONE', ( #980 ), #1183, .T. ) ;
#451 = VECTOR ( 'NONE', #604, 39.37007874015748143 ) ;
#452 = PLANE ( 'NONE',  #48 ) ;
#453 = LINE ( 'NONE', #845, #786 ) ;
#454 = PRESENTATION_STYLE_ASSIGNMENT (( #1072 ) ) ;
#455 = VECTOR ( 'NONE', #565, 39.37007874015748143 ) ;
#456 = ADVANCED_FACE ( 'NONE', ( #277 ), #163, .T. ) ;
#457 = DIRECTION ( 'NONE',  ( -0.000000000000000000, -0.000000000000000000, -1.000000000000000000 ) ) ;
#458 = MECHANICAL_DESIGN_GEOMETRIC_PRESENTATION_REPRESENTATION (  '', ( #1176 ), #627 ) ;
#459 = DIRECTION ( 'NONE',  ( -0.000000000000000000, -0.000000000000000000, -1.000000000000000000 ) ) ;
#460 = DIRECTION ( 'NONE',  ( 0.000000000000000000, -1.000000000000000000, 0.000000000000000000 ) ) ;
#461 =( GEOMETRIC_REPRESENTATION_CONTEXT ( 3 ) GLOBAL_UNCERTAINTY_ASSIGNED_CONTEXT ( ( #966 ) ) GLOBAL_UNIT_ASSIGNED_CONTEXT ( ( #848, #964, #386 ) ) REPRESENTATION_CONTEXT ( 'NONE', 'WORKASPACE' ) );
#462 = DIRECTION ( 'NONE',  ( -1.000000000000000000, 0.000000000000000000, -0.000000000000000000 ) ) ;
#463 = CARTESIAN_POINT ( 'NONE',  ( -2.624999999999999112, -4.000000000000000000, 0.04249999999999964223 ) ) ;
#464 = CARTESIAN_POINT ( 'NONE',  ( -2.624999999999999112, -2.000000000000000000, 0.04249999999999964223 ) ) ;
#465 = CARTESIAN_POINT ( 'NONE',  ( -2.374999999999999112, -3.500000000000000000, 0.06499999999999998834 ) ) ;
#466 = MECHANICAL_DESIGN_GEOMETRIC_PRESENTATION_REPRESENTATION (  '', ( #1019 ), #639 ) ;
#467 = AXIS2_PLACEMENT_3D ( 'NONE', #539, #737, #515 ) ;
#468 = CARTESIAN_POINT ( 'NONE',  ( -2.374999999999999112, -4.500000000000000000, 0.08750000000000007772 ) ) ;
#469 = ADVANCED_FACE ( 'NONE', ( #1033 ), #452, .F. ) ;
#470 = DIRECTION ( 'NONE',  ( 0.000000000000000000, 1.000000000000000000, 0.000000000000000000 ) ) ;
#471 = PLANE ( 'NONE',  #742 ) ;
#472 = DIRECTION ( 'NONE',  ( 0.000000000000000000, 0.000000000000000000, 1.000000000000000000 ) ) ;
#473 = FACE_OUTER_BOUND ( 'NONE', #169, .T. ) ;
#474 = ORIENTED_EDGE ( 'NONE', *, *, #1229, .F. ) ;
#475 = FACE_OUTER_BOUND ( 'NONE', #656, .T. ) ;
#476 = LINE ( 'NONE', #872, #1143 ) ;
#477 = DIMENSIONAL_EXPONENTS ( 1.000000000000000000, 0.000000000000000000, 0.000000000000000000, 0.000000000000000000, 0.000000000000000000, 0.000000000000000000, 0.000000000000000000 ) ;
#478 = AXIS2_PLACEMENT_3D ( 'NONE', #117, #960, #504 ) ;
#479 = COLOUR_RGB ( '',0.2980392156862745057, 0.2980392156862745057, 0.2980392156862745057 ) ;
#480 = CARTESIAN_POINT ( 'NONE',  ( -2.374999999999999112, -4.500000000000000000, 0.06499999999999998834 ) ) ;
#481 = LENGTH_MEASURE_WITH_UNIT ( LENGTH_MEASURE( 0.02539999999999999897 ), #292 );
#482 = ORIENTED_EDGE ( 'NONE', *, *, #407, .F. ) ;
#483 = PRESENTATION_LAYER_ASSIGNMENT (  '', '', ( #1040 ) ) ;
#484 = EDGE_CURVE ( 'NONE', #343, #733, #428, .T. ) ;
#485 = UNCERTAINTY_MEASURE_WITH_UNIT (LENGTH_MEASURE( 1.000000000000000082E-05 ), #1010, 'distance_accuracy_value', 'NONE');
#486 = FACE_BOUND ( 'NONE', #541, .T. ) ;
#487 = DIRECTION ( 'NONE',  ( 1.000000000000000000, 0.000000000000000000, 0.000000000000000000 ) ) ;
#488 = CARTESIAN_POINT ( 'NONE',  ( -2.549999999999998934, -4.563639610306790217, 0.04249999999999964223 ) ) ;
#489 = DIMENSIONAL_EXPONENTS ( 1.000000000000000000, 0.000000000000000000, 0.000000000000000000, 0.000000000000000000, 0.000000000000000000, 0.000000000000000000, 0.000000000000000000 ) ;
#490 = CIRCLE ( 'NONE', #1130, 0.02250000000000037387 ) ;
#491 = EDGE_LOOP ( 'NONE', ( #1201, #253, #124, #1197 ) ) ;
#492 = ORIENTED_EDGE ( 'NONE', *, *, #396, .F. ) ;
#493 = SURFACE_SIDE_STYLE ('',( #1149 ) ) ;
#494 = CARTESIAN_POINT ( 'NONE',  ( -2.999999999999999112, -1.499999999999999778, 0.04000000000000000083 ) ) ;
#495 = SHAPE_DEFINITION_REPRESENTATION ( #1215, #887 ) ;
#496 = FACE_BOUND ( 'NONE', #161, .T. ) ;
#497 = DIRECTION ( 'NONE',  ( 0.000000000000000000, 0.000000000000000000, 1.000000000000000000 ) ) ;
#498 = ORIENTED_EDGE ( 'NONE', *, *, #971, .F. ) ;
#499 = DIMENSIONAL_EXPONENTS ( 1.000000000000000000, 0.000000000000000000, 0.000000000000000000, 0.000000000000000000, 0.000000000000000000, 0.000000000000000000, 0.000000000000000000 ) ;
#500 = DIRECTION ( 'NONE',  ( -0.000000000000000000, -0.000000000000000000, -1.000000000000000000 ) ) ;
#501 = CARTESIAN_POINT ( 'NONE',  ( 0.000000000000000000, 0.000000000000000000, 0.000000000000000000 ) ) ;
#502 = COLOUR_RGB ( '',0.2980392156862745057, 0.2980392156862745057, 0.2980392156862745057 ) ;
#503 =( CONVERSION_BASED_UNIT ( 'INCH', #1092 ) LENGTH_UNIT ( ) NAMED_UNIT ( #489 ) );
#504 = DIRECTION ( 'NONE',  ( 0.000000000000000000, -0.000000000000000000, 1.000000000000000000 ) ) ;
#505 = VERTEX_POINT ( 'NONE', #1138 ) ;
#506 = CARTESIAN_POINT ( 'NONE',  ( -2.624999999999999112, -4.500000000000000000, 0.06499999999999998834 ) ) ;
#507 = CARTESIAN_POINT ( 'NONE',  ( -2.999999999999999112, -1.499999999999999778, 0.08999999999999999667 ) ) ;
#508 = AXIS2_PLACEMENT_3D ( 'NONE', #531, #354, #77 ) ;
#509 = DIRECTION ( 'NONE',  ( 0.000000000000000000, 1.000000000000000000, -0.000000000000000000 ) ) ;
#510 = LINE ( 'NONE', #68, #1167 ) ;
#511 = ORIENTED_EDGE ( 'NONE', *, *, #228, .F. ) ;
#512 = DIRECTION ( 'NONE',  ( -0.000000000000000000, 1.000000000000000000, -0.000000000000000000 ) ) ;
#513 = DIRECTION ( 'NONE',  ( 0.000000000000000000, 1.000000000000000000, -0.000000000000000000 ) ) ;
#514 =( CONVERSION_BASED_UNIT ( 'INCH', #130 ) LENGTH_UNIT ( ) NAMED_UNIT ( #585 ) );
#515 = DIRECTION ( 'NONE',  ( 0.000000000000000000, 0.000000000000000000, -1.000000000000000000 ) ) ;
#516 = ORIENTED_EDGE ( 'NONE', *, *, #245, .F. ) ;
#517 = PRODUCT ( '8X10 Heating Pad', '8X10 Heating Pad', '', ( #1100 ) ) ;
#518 = ORIENTED_EDGE ( 'NONE', *, *, #101, .T. ) ;
#519 = ORIENTED_EDGE ( 'NONE', *, *, #1014, .T. ) ;
#520 = MECHANICAL_DESIGN_GEOMETRIC_PRESENTATION_REPRESENTATION (  '', ( #1101 ), #698 ) ;
#521 = EDGE_CURVE ( 'NONE', #738, #69, #528, .T. ) ;
#522 = CARTESIAN_POINT ( 'NONE',  ( -2.624999999999999112, -3.500000000000000000, 0.08750000000000032752 ) ) ;
#523 = VERTEX_POINT ( 'NONE', #566 ) ;
#524 = VERTEX_POINT ( 'NONE', #864 ) ;
#525 = ORIENTED_EDGE ( 'NONE', *, *, #245, .T. ) ;
#526 = DIRECTION ( 'NONE',  ( -0.000000000000000000, 1.000000000000000000, -0.000000000000000000 ) ) ;
#527 = FILL_AREA_STYLE_COLOUR ( '', #773 ) ;
#528 = CIRCLE ( 'NONE', #855, 0.02250000000000008590 ) ;
#529 = CARTESIAN_POINT ( 'NONE',  ( -2.999999999999999112, -4.000000000000000000, 0.1880000000000000282 ) ) ;
#530 = ORIENTED_EDGE ( 'NONE', *, *, #620, .T. ) ;
#531 = CARTESIAN_POINT ( 'NONE',  ( -2.374999999999999112, -3.500000000000000000, 0.06499999999999998834 ) ) ;
#532 = ORIENTED_EDGE ( 'NONE', *, *, #203, .F. ) ;
#533 = PRESENTATION_LAYER_ASSIGNMENT (  '', '', ( #125 ) ) ;
#534 = ORIENTED_EDGE ( 'NONE', *, *, #703, .F. ) ;
#535 = EDGE_LOOP ( 'NONE', ( #78, #1045, #793, #731, #785, #744, #985, #336 ) ) ;
#536 =( NAMED_UNIT ( * ) SI_UNIT ( $, .STERADIAN. ) SOLID_ANGLE_UNIT ( ) );
#537 = AXIS2_PLACEMENT_3D ( 'NONE', #661, #691, #1066 ) ;
#538 =( NAMED_UNIT ( * ) SI_UNIT ( $, .STERADIAN. ) SOLID_ANGLE_UNIT ( ) );
#539 = CARTESIAN_POINT ( 'NONE',  ( -4.999999999999999112, -4.000000000000000000, 0.04000000000000000083 ) ) ;
#540 = ORIENTED_EDGE ( 'NONE', *, *, #681, .T. ) ;
#541 = EDGE_LOOP ( 'NONE', ( #837, #1235 ) ) ;
#542 = APPLICATION_CONTEXT ( 'automotive_design' ) ;
#543 = DIRECTION ( 'NONE',  ( 0.000000000000000000, 0.000000000000000000, 1.000000000000000000 ) ) ;
#544 = ADVANCED_FACE ( 'NONE', ( #1169 ), #369, .T. ) ;
#545 = CARTESIAN_POINT ( 'NONE',  ( -2.374999999999999112, -4.500000000000000000, 0.06499999999999998834 ) ) ;
#546 = EDGE_CURVE ( 'NONE', #248, #52, #409, .T. ) ;
#547 = COLOUR_RGB ( '',0.9882352941176471006, 0.7372549019607843590, 0.5176470588235293491 ) ;
#548 = LINE ( 'NONE', #932, #18 ) ;
#549 = AXIS2_PLACEMENT_3D ( 'NONE', #1162, #298, #868 ) ;
#550 = EDGE_LOOP ( 'NONE', ( #725, #916 ) ) ;
#551 = CIRCLE ( 'NONE', #186, 0.02250000000000033917 ) ;
#552 =( LENGTH_UNIT ( ) NAMED_UNIT ( * ) SI_UNIT ( $, .METRE. ) );
#553 = ORIENTED_EDGE ( 'NONE', *, *, #521, .F. ) ;
#554 =( CONVERSION_BASED_UNIT ( 'INCH', #764 ) LENGTH_UNIT ( ) NAMED_UNIT ( #220 ) );
#555 = UNCERTAINTY_MEASURE_WITH_UNIT (LENGTH_MEASURE( 1.000000000000000082E-05 ), #29, 'distance_accuracy_value', 'NONE');
#556 = FILL_AREA_STYLE ('',( #214 ) ) ;
#557 = DIRECTION ( 'NONE',  ( 0.000000000000000000, -1.000000000000000000, 0.000000000000000000 ) ) ;
#558 = DIRECTION ( 'NONE',  ( 0.000000000000000000, 0.000000000000000000, 1.000000000000000000 ) ) ;
#559 = STYLED_ITEM ( 'NONE', ( #701 ), #269 ) ;
#560 = DIRECTION ( 'NONE',  ( 1.000000000000000000, 0.000000000000000000, 0.000000000000000000 ) ) ;
#561 = VECTOR ( 'NONE', #877, 39.37007874015748143 ) ;
#562 = SURFACE_SIDE_STYLE ('',( #876 ) ) ;
#563 = CARTESIAN_POINT ( 'NONE',  ( -2.624999999999999112, -4.500000000000000000, 0.08750000000000032752 ) ) ;
#564 = EDGE_CURVE ( 'NONE', #700, #70, #301, .T. ) ;
#565 = DIRECTION ( 'NONE',  ( -0.000000000000000000, -0.000000000000000000, -1.000000000000000000 ) ) ;
#566 = CARTESIAN_POINT ( 'NONE',  ( -2.999999999999999112, -4.000000000000000000, 0.04000000000000000083 ) ) ;
#567 = DIRECTION ( 'NONE',  ( 0.000000000000000000, 0.000000000000000000, 1.000000000000000000 ) ) ;
#568 = LINE ( 'NONE', #193, #561 ) ;
#569 = DIRECTION ( 'NONE',  ( 0.000000000000000000, -0.000000000000000000, 1.000000000000000000 ) ) ;
#570 = DIRECTION ( 'NONE',  ( -1.000000000000000000, 0.000000000000000000, 0.000000000000000000 ) ) ;
#571 = MECHANICAL_DESIGN_GEOMETRIC_PRESENTATION_REPRESENTATION (  '', ( #352 ), #166 ) ;
#572 = CARTESIAN_POINT ( 'NONE',  ( -4.999999999999999112, -4.000000000000000000, 0.04000000000000000083 ) ) ;
#573 = AXIS2_PLACEMENT_3D ( 'NONE', #802, #712, #1189 ) ;
#574 = FILL_AREA_STYLE_COLOUR ( '', #331 ) ;
#575 = DIRECTION ( 'NONE',  ( 0.000000000000000000, 0.000000000000000000, 1.000000000000000000 ) ) ;
#576 = ORIENTED_EDGE ( 'NONE', *, *, #765, .T. ) ;
#577 = CARTESIAN_POINT ( 'NONE',  ( 0.000000000000000000, -2.000000000000000000, 0.08999999999999999667 ) ) ;
#578 = ADVANCED_FACE ( 'NONE', ( #853, #288 ), #471, .F. ) ;
#579 =( NAMED_UNIT ( * ) PLANE_ANGLE_UNIT ( ) SI_UNIT ( $, .RADIAN. ) );
#580 = EDGE_CURVE ( 'NONE', #1132, #35, #1221, .T. ) ;
#581 = DIMENSIONAL_EXPONENTS ( 1.000000000000000000, 0.000000000000000000, 0.000000000000000000, 0.000000000000000000, 0.000000000000000000, 0.000000000000000000, 0.000000000000000000 ) ;
#582 = CARTESIAN_POINT ( 'NONE',  ( -2.624999999999999112, -3.500000000000000000, 0.06499999999999998834 ) ) ;
#583 = ADVANCED_FACE ( 'NONE', ( #383 ), #770, .T. ) ;
#584 = DIRECTION ( 'NONE',  ( -5.463695987328525451E-16, -1.000000000000000000, 0.000000000000000000 ) ) ;
#585 = DIMENSIONAL_EXPONENTS ( 1.000000000000000000, 0.000000000000000000, 0.000000000000000000, 0.000000000000000000, 0.000000000000000000, 0.000000000000000000, 0.000000000000000000 ) ;
#586 = LENGTH_MEASURE_WITH_UNIT ( LENGTH_MEASURE( 0.02539999999999999897 ), #120 );
#587 = ORIENTED_EDGE ( 'NONE', *, *, #991, .T. ) ;
#588 = PLANE ( 'NONE',  #549 ) ;
#589 = ADVANCED_FACE ( 'NONE', ( #679 ), #961, .T. ) ;
#590 = PRESENTATION_STYLE_ASSIGNMENT (( #201 ) ) ;
#591 = FACE_OUTER_BOUND ( 'NONE', #1042, .T. ) ;
#592 = LENGTH_MEASURE_WITH_UNIT ( LENGTH_MEASURE( 0.02539999999999999897 ), #1080 );
#593 = DIRECTION ( 'NONE',  ( -0.000000000000000000, 1.000000000000000000, -0.000000000000000000 ) ) ;
#594 = VECTOR ( 'NONE', #55, 39.37007874015748143 ) ;
#595 = EDGE_LOOP ( 'NONE', ( #1210, #255, #19, #440 ) ) ;
#596 = DIRECTION ( 'NONE',  ( -0.000000000000000000, 1.000000000000000000, -0.000000000000000000 ) ) ;
#597 = DIRECTION ( 'NONE',  ( 1.000000000000000000, 0.000000000000000000, 0.000000000000000000 ) ) ;
#598 = DIMENSIONAL_EXPONENTS ( 1.000000000000000000, 0.000000000000000000, 0.000000000000000000, 0.000000000000000000, 0.000000000000000000, 0.000000000000000000, 0.000000000000000000 ) ;
#599 = MECHANICAL_DESIGN_GEOMETRIC_PRESENTATION_REPRESENTATION (  '', ( #1146 ), #102 ) ;
#600 = DIMENSIONAL_EXPONENTS ( 1.000000000000000000, 0.000000000000000000, 0.000000000000000000, 0.000000000000000000, 0.000000000000000000, 0.000000000000000000, 0.000000000000000000 ) ;
#601 = DIRECTION ( 'NONE',  ( -0.000000000000000000, -0.000000000000000000, -1.000000000000000000 ) ) ;
#602 = UNCERTAINTY_MEASURE_WITH_UNIT (LENGTH_MEASURE( 1.000000000000000082E-05 ), #347, 'distance_accuracy_value', 'NONE');
#603 = CARTESIAN_POINT ( 'NONE',  ( -2.624999999999999112, -4.500000000000000000, 0.06499999999999998834 ) ) ;
#604 = DIRECTION ( 'NONE',  ( -0.000000000000000000, 1.000000000000000000, -0.000000000000000000 ) ) ;
#605 =( NAMED_UNIT ( * ) PLANE_ANGLE_UNIT ( ) SI_UNIT ( $, .RADIAN. ) );
#606 = ORIENTED_EDGE ( 'NONE', *, *, #396, .T. ) ;
#607 = AXIS2_PLACEMENT_3D ( 'NONE', #782, #886, #34 ) ;
#608 = VECTOR ( 'NONE', #180, 39.37007874015748143 ) ;
#609 = EDGE_CURVE ( 'NONE', #523, #625, #25, .T. ) ;
#610 = MECHANICAL_DESIGN_GEOMETRIC_PRESENTATION_REPRESENTATION (  '', ( #1222 ), #1156 ) ;
#611 = LINE ( 'NONE', #994, #688 ) ;
#612 = PLANE ( 'NONE',  #467 ) ;
#613 = VERTEX_POINT ( 'NONE', #1052 ) ;
#614 = SURFACE_SIDE_STYLE ('',( #997 ) ) ;
#615 = FILL_AREA_STYLE_COLOUR ( '', #1004 ) ;
#616 = DIRECTION ( 'NONE',  ( 0.000000000000000000, 0.000000000000000000, -1.000000000000000000 ) ) ;
#617 = EDGE_LOOP ( 'NONE', ( #341, #1032 ) ) ;
#618 = ORIENTED_EDGE ( 'NONE', *, *, #620, .F. ) ;
#619 = CARTESIAN_POINT ( 'NONE',  ( -2.999999999999999112, 0.000000000000000000, 0.08999999999999999667 ) ) ;
#620 = EDGE_CURVE ( 'NONE', #1179, #1031, #97, .T. ) ;
#621 = VECTOR ( 'NONE', #1068, 39.37007874015748143 ) ;
#622 = DIMENSIONAL_EXPONENTS ( 1.000000000000000000, 0.000000000000000000, 0.000000000000000000, 0.000000000000000000, 0.000000000000000000, 0.000000000000000000, 0.000000000000000000 ) ;
#623 = MANIFOLD_SOLID_BREP ( 'Boss-Extrude6', #694 ) ;
#624 = DIRECTION ( 'NONE',  ( 0.000000000000000000, 0.000000000000000000, 1.000000000000000000 ) ) ;
#625 = VERTEX_POINT ( 'NONE', #397 ) ;
#626 = EDGE_LOOP ( 'NONE', ( #915, #882, #437, #240 ) ) ;
#627 =( GEOMETRIC_REPRESENTATION_CONTEXT ( 3 ) GLOBAL_UNCERTAINTY_ASSIGNED_CONTEXT ( ( #1163 ) ) GLOBAL_UNIT_ASSIGNED_CONTEXT ( ( #190, #1037, #538 ) ) REPRESENTATION_CONTEXT ( 'NONE', 'WORKASPACE' ) );
#628 = ORIENTED_EDGE ( 'NONE', *, *, #1044, .T. ) ;
#629 = SURFACE_STYLE_FILL_AREA ( #256 ) ;
#630 = CARTESIAN_POINT ( 'NONE',  ( -2.449999999999998845, -4.563639610306790217, 0.06499999999999998834 ) ) ;
#631 = SURFACE_STYLE_FILL_AREA ( #75 ) ;
#632 = ORIENTED_EDGE ( 'NONE', *, *, #83, .T. ) ;
#633 = CARTESIAN_POINT ( 'NONE',  ( -4.999999999999999112, 3.999999999999999556, 0.04000000000000000083 ) ) ;
#634 = ORIENTED_EDGE ( 'NONE', *, *, #838, .T. ) ;
#635 = EDGE_LOOP ( 'NONE', ( #1106, #1211, #181, #167 ) ) ;
#636 = ORIENTED_EDGE ( 'NONE', *, *, #1223, .F. ) ;
#637 =( LENGTH_UNIT ( ) NAMED_UNIT ( * ) SI_UNIT ( $, .METRE. ) );
#638 = PRODUCT_RELATED_PRODUCT_CATEGORY ( 'part', '', ( #517 ) ) ;
#639 =( GEOMETRIC_REPRESENTATION_CONTEXT ( 3 ) GLOBAL_UNCERTAINTY_ASSIGNED_CONTEXT ( ( #356 ) ) GLOBAL_UNIT_ASSIGNED_CONTEXT ( ( #674, #873, #754 ) ) REPRESENTATION_CONTEXT ( 'NONE', 'WORKASPACE' ) );
#640 = DIRECTION ( 'NONE',  ( 0.000000000000000000, 0.000000000000000000, -1.000000000000000000 ) ) ;
#641 = DIRECTION ( 'NONE',  ( 0.000000000000000000, 0.000000000000000000, 1.000000000000000000 ) ) ;
#642 = ORIENTED_EDGE ( 'NONE', *, *, #362, .F. ) ;
#643 = VECTOR ( 'NONE', #729, 39.37007874015748143 ) ;
#644 = VERTEX_POINT ( 'NONE', #1239 ) ;
#645 = ADVANCED_FACE ( 'NONE', ( #496, #969, #45 ), #408, .F. ) ;
#646 =( NAMED_UNIT ( * ) SI_UNIT ( $, .STERADIAN. ) SOLID_ANGLE_UNIT ( ) );
#647 = EDGE_CURVE ( 'NONE', #427, #52, #1175, .T. ) ;
#648 = DIRECTION ( 'NONE',  ( 0.000000000000000000, -1.000000000000000000, 0.000000000000000000 ) ) ;
#649 = ORIENTED_EDGE ( 'NONE', *, *, #153, .F. ) ;
#650 = ORIENTED_EDGE ( 'NONE', *, *, #250, .F. ) ;
#651 =( CONVERSION_BASED_UNIT ( 'INCH', #831 ) LENGTH_UNIT ( ) NAMED_UNIT ( #581 ) );
#652 = STYLED_ITEM ( 'NONE', ( #133 ), #623 ) ;
#653 = LINE ( 'NONE', #1039, #137 ) ;
#654 = AXIS2_PLACEMENT_3D ( 'NONE', #121, #1067, #387 ) ;
#655 = AXIS2_PLACEMENT_3D ( 'NONE', #506, #721, #1107 ) ;
#656 = EDGE_LOOP ( 'NONE', ( #1128, #1133, #511, #530 ) ) ;
#657 = SURFACE_STYLE_FILL_AREA ( #339 ) ;
#658 = LENGTH_MEASURE_WITH_UNIT ( LENGTH_MEASURE( 0.02539999999999999897 ), #963 );
#659 = DIRECTION ( 'NONE',  ( 0.000000000000000000, 0.000000000000000000, 1.000000000000000000 ) ) ;
#660 = UNCERTAINTY_MEASURE_WITH_UNIT (LENGTH_MEASURE( 1.000000000000000082E-05 ), #93, 'distance_accuracy_value', 'NONE');
#661 = CARTESIAN_POINT ( 'NONE',  ( -2.449999999999998845, -4.563639610306790217, 0.06499999999999998834 ) ) ;
#662 = AXIS2_PLACEMENT_3D ( 'NONE', #687, #43, #320 ) ;
#663 = CARTESIAN_POINT ( 'NONE',  ( 0.000000000000000000, 0.000000000000000000, 0.08999999999999999667 ) ) ;
#664 = EDGE_CURVE ( 'NONE', #221, #996, #328, .T. ) ;
#665 = CARTESIAN_POINT ( 'NONE',  ( -2.624999999999999112, -4.000000000000000000, 0.06499999999999998834 ) ) ;
#666 = AXIS2_PLACEMENT_3D ( 'NONE', #1061, #389, #126 ) ;
#667 = DIRECTION ( 'NONE',  ( 0.000000000000000000, 0.000000000000000000, 1.000000000000000000 ) ) ;
#668 = CIRCLE ( 'NONE', #285, 0.02250000000000034958 ) ;
#669 = DIRECTION ( 'NONE',  ( 0.000000000000000000, 0.000000000000000000, 1.000000000000000000 ) ) ;
#670 = PLANE ( 'NONE',  #767 ) ;
#671 = PRESENTATION_LAYER_ASSIGNMENT (  '', '', ( #1121 ) ) ;
#672 = AXIS2_PLACEMENT_3D ( 'NONE', #689, #1063, #197 ) ;
#673 = MECHANICAL_DESIGN_GEOMETRIC_PRESENTATION_REPRESENTATION (  '', ( #988 ), #893 ) ;
#674 =( CONVERSION_BASED_UNIT ( 'INCH', #14 ) LENGTH_UNIT ( ) NAMED_UNIT ( #875 ) );
#675 = CARTESIAN_POINT ( 'NONE',  ( -2.374999999999999112, -4.500000000000000000, 0.08750000000000007772 ) ) ;
#676 = STYLED_ITEM ( 'NONE', ( #225 ), #434 ) ;
#677 = CARTESIAN_POINT ( 'NONE',  ( 0.000000000000000000, -1.499999999999999778, 0.04000000000000000083 ) ) ;
#678 = ADVANCED_FACE ( 'NONE', ( #1216, #788, #591 ), #1181, .T. ) ;
#679 = FACE_OUTER_BOUND ( 'NONE', #1172, .T. ) ;
#680 = AXIS2_PLACEMENT_3D ( 'NONE', #246, #828, #641 ) ;
#681 = EDGE_CURVE ( 'NONE', #724, #92, #315, .T. ) ;
#682 = CARTESIAN_POINT ( 'NONE',  ( -1.999999999999999112, -3.500000000000000000, 0.1880000000000000282 ) ) ;
#683 = PRESENTATION_STYLE_ASSIGNMENT (( #296 ) ) ;
#684 = CYLINDRICAL_SURFACE ( 'NONE', #537, 0.02250000000000037387 ) ;
#685 = DIRECTION ( 'NONE',  ( 0.000000000000000000, -1.000000000000000000, 0.000000000000000000 ) ) ;
#686 = FILL_AREA_STYLE ('',( #761 ) ) ;
#687 = CARTESIAN_POINT ( 'NONE',  ( -2.449999999999998845, -4.500000000000000000, 0.06499999999999998834 ) ) ;
#688 = VECTOR ( 'NONE', #509, 39.37007874015748143 ) ;
#689 = CARTESIAN_POINT ( 'NONE',  ( -2.999999999999999112, 0.000000000000000000, 0.08999999999999999667 ) ) ;
#690 = EDGE_CURVE ( 'NONE', #733, #505, #781, .T. ) ;
#691 = DIRECTION ( 'NONE',  ( -0.000000000000000000, 1.000000000000000000, -0.000000000000000000 ) ) ;
#692 = ORIENTED_EDGE ( 'NONE', *, *, #112, .T. ) ;
#693 = DIRECTION ( 'NONE',  ( 0.000000000000000000, 0.000000000000000000, -1.000000000000000000 ) ) ;
#694 = CLOSED_SHELL ( 'NONE', ( #450, #382, #1034, #60, #434, #456, #578, #1224, #469, #936, #205, #849, #678, #189, #755, #990, #645, #1134, #1164, #589, #583, #241, #50, #269, #370, #287, #544, #150, #324, #2, #178 ) ) ;
#695 = FACE_OUTER_BOUND ( 'NONE', #776, .T. ) ;
#696 = CARTESIAN_POINT ( 'NONE',  ( -1.999999999999999334, -4.000000000000000000, 0.1880000000000000282 ) ) ;
#697 = SURFACE_STYLE_USAGE ( .BOTH. , #418 ) ;
#698 =( GEOMETRIC_REPRESENTATION_CONTEXT ( 3 ) GLOBAL_UNCERTAINTY_ASSIGNED_CONTEXT ( ( #42 ) ) GLOBAL_UNIT_ASSIGNED_CONTEXT ( ( #132, #605, #406 ) ) REPRESENTATION_CONTEXT ( 'NONE', 'WORKASPACE' ) );
#699 = CARTESIAN_POINT ( 'NONE',  ( -2.624999999999999112, -4.500000000000000000, 0.06499999999999998834 ) ) ;
#700 = VERTEX_POINT ( 'NONE', #300 ) ;
#701 = PRESENTATION_STYLE_ASSIGNMENT (( #981 ) ) ;
#702 = CARTESIAN_POINT ( 'NONE',  ( -1.999999999999999112, -1.499999999999999778, 0.08999999999999999667 ) ) ;
#703 = EDGE_CURVE ( 'NONE', #155, #1006, #87, .T. ) ;
#704 = PRESENTATION_LAYER_ASSIGNMENT (  '', '', ( #352 ) ) ;
#705 = SURFACE_STYLE_FILL_AREA ( #103 ) ;
#706 = CIRCLE ( 'NONE', #954, 0.02250000000000033917 ) ;
#707 = CARTESIAN_POINT ( 'NONE',  ( -2.449999999999998845, -4.500000000000000000, 0.04249999999999961448 ) ) ;
#708 = FACE_OUTER_BOUND ( 'NONE', #158, .T. ) ;
#709 = EDGE_CURVE ( 'NONE', #261, #524, #127, .T. ) ;
#710 = COLOUR_RGB ( '',0.2980392156862745057, 0.2980392156862745057, 0.2980392156862745057 ) ;
#711 = SURFACE_SIDE_STYLE ('',( #912 ) ) ;
#712 = DIRECTION ( 'NONE',  ( -0.000000000000000000, -1.000000000000000000, -0.000000000000000000 ) ) ;
#713 = ORIENTED_EDGE ( 'NONE', *, *, #310, .T. ) ;
#714 =( NAMED_UNIT ( * ) PLANE_ANGLE_UNIT ( ) SI_UNIT ( $, .RADIAN. ) );
#715 = VECTOR ( 'NONE', #459, 39.37007874015748143 ) ;
#716 =( NAMED_UNIT ( * ) SI_UNIT ( $, .STERADIAN. ) SOLID_ANGLE_UNIT ( ) );
#717 = LINE ( 'NONE', #340, #411 ) ;
#718 = AXIS2_PLACEMENT_3D ( 'NONE', #630, #923, #88 ) ;
#719 = ORIENTED_EDGE ( 'NONE', *, *, #546, .T. ) ;
#720 = EDGE_CURVE ( 'NONE', #70, #523, #405, .T. ) ;
#721 = DIRECTION ( 'NONE',  ( -0.000000000000000000, 1.000000000000000000, -0.000000000000000000 ) ) ;
#722 = DIRECTION ( 'NONE',  ( -1.000000000000000000, -0.000000000000000000, -0.000000000000000000 ) ) ;
#723 = ORIENTED_EDGE ( 'NONE', *, *, #791, .T. ) ;
#724 = VERTEX_POINT ( 'NONE', #413 ) ;
#725 = ORIENTED_EDGE ( 'NONE', *, *, #426, .T. ) ;
#726 = FILL_AREA_STYLE_COLOUR ( '', #479 ) ;
#727 =( NAMED_UNIT ( * ) PLANE_ANGLE_UNIT ( ) SI_UNIT ( $, .RADIAN. ) );
#728 = AXIS2_PLACEMENT_3D ( 'NONE', #780, #223, #950 ) ;
#729 = DIRECTION ( 'NONE',  ( 1.000000000000000000, 0.000000000000000000, 0.000000000000000000 ) ) ;
#730 = ORIENTED_EDGE ( 'NONE', *, *, #1170, .T. ) ;
#731 = ORIENTED_EDGE ( 'NONE', *, *, #278, .T. ) ;
#732 = AXIS2_PLACEMENT_3D ( 'NONE', #1054, #866, #575 ) ;
#733 = VERTEX_POINT ( 'NONE', #217 ) ;
#734 = VECTOR ( 'NONE', #195, 39.37007874015748143 ) ;
#735 = PRESENTATION_STYLE_ASSIGNMENT (( #1028 ) ) ;
#736 = COLOUR_RGB ( '',0.2980392156862745057, 0.2980392156862745057, 0.2980392156862745057 ) ;
#737 = DIRECTION ( 'NONE',  ( 1.000000000000000000, 0.000000000000000000, 0.000000000000000000 ) ) ;
#738 = VERTEX_POINT ( 'NONE', #968 ) ;
#739 = EDGE_LOOP ( 'NONE', ( #957, #516, #824, #540 ) ) ;
#740 = COLOUR_RGB ( '',0.2980392156862745057, 0.2980392156862745057, 0.2980392156862745057 ) ;
#741 = CARTESIAN_POINT ( 'NONE',  ( -2.624999999999999112, -4.500000000000000000, 0.06499999999999998834 ) ) ;
#742 = AXIS2_PLACEMENT_3D ( 'NONE', #1141, #1145, #462 ) ;
#743 = CARTESIAN_POINT ( 'NONE',  ( -4.999999999999999112, -4.000000000000000000, 0.04000000000000000083 ) ) ;
#744 = ORIENTED_EDGE ( 'NONE', *, *, #720, .T. ) ;
#745 = VECTOR ( 'NONE', #487, 39.37007874015748143 ) ;
#746 = EDGE_LOOP ( 'NONE', ( #168, #908 ) ) ;
#747 = FILL_AREA_STYLE_COLOUR ( '', #502 ) ;
#748 =( NAMED_UNIT ( * ) PLANE_ANGLE_UNIT ( ) SI_UNIT ( $, .RADIAN. ) );
#749 = UNCERTAINTY_MEASURE_WITH_UNIT (LENGTH_MEASURE( 1.000000000000000082E-05 ), #172, 'distance_accuracy_value', 'NONE');
#750 = VERTEX_POINT ( 'NONE', #973 ) ;
#751 = SURFACE_STYLE_FILL_AREA ( #1232 ) ;
#752 = DIRECTION ( 'NONE',  ( 0.000000000000000000, 0.000000000000000000, 1.000000000000000000 ) ) ;
#753 = VERTEX_POINT ( 'NONE', #308 ) ;
#754 =( NAMED_UNIT ( * ) SI_UNIT ( $, .STERADIAN. ) SOLID_ANGLE_UNIT ( ) );
#755 = ADVANCED_FACE ( 'NONE', ( #708 ), #140, .F. ) ;
#756 = CARTESIAN_POINT ( 'NONE',  ( -1.999999999999999112, -2.000000000000000000, 0.08999999999999999667 ) ) ;
#757 = MECHANICAL_DESIGN_GEOMETRIC_PRESENTATION_REPRESENTATION (  '', ( #125 ), #1206 ) ;
#758 = DIRECTION ( 'NONE',  ( -0.000000000000000000, 0.000000000000000000, 1.000000000000000000 ) ) ;
#759 = CARTESIAN_POINT ( 'NONE',  ( -4.999999999999999112, -4.000000000000000000, 0.000000000000000000 ) ) ;
#760 = PRESENTATION_STYLE_ASSIGNMENT (( #99 ) ) ;
#761 = FILL_AREA_STYLE_COLOUR ( '', #1048 ) ;
#762 = CARTESIAN_POINT ( 'NONE',  ( -2.374999999999999112, -2.000000000000000000, 0.08750000000000007772 ) ) ;
#763 = SURFACE_SIDE_STYLE ('',( #199 ) ) ;
#764 = LENGTH_MEASURE_WITH_UNIT ( LENGTH_MEASURE( 0.02539999999999999897 ), #847 );
#765 = EDGE_CURVE ( 'NONE', #1122, #430, #1069, .T. ) ;
#766 = AXIS2_PLACEMENT_3D ( 'NONE', #1086, #774, #1174 ) ;
#767 = AXIS2_PLACEMENT_3D ( 'NONE', #1233, #470, #569 ) ;
#768 = FACE_OUTER_BOUND ( 'NONE', #1219, .T. ) ;
#769 = EDGE_CURVE ( 'NONE', #261, #750, #51, .T. ) ;
#770 = PLANE ( 'NONE',  #983 ) ;
#771 =( LENGTH_UNIT ( ) NAMED_UNIT ( * ) SI_UNIT ( $, .METRE. ) );
#772 = PLANE ( 'NONE',  #100 ) ;
#773 = COLOUR_RGB ( '',0.2980392156862745057, 0.2980392156862745057, 0.2980392156862745057 ) ;
#774 = DIRECTION ( 'NONE',  ( -0.000000000000000000, -1.000000000000000000, -0.000000000000000000 ) ) ;
#775 = PRESENTATION_STYLE_ASSIGNMENT (( #941 ) ) ;
#776 = EDGE_LOOP ( 'NONE', ( #1017, #939, #247, #1212 ) ) ;
#777 = VERTEX_POINT ( 'NONE', #494 ) ;
#778 =( NAMED_UNIT ( * ) SI_UNIT ( $, .STERADIAN. ) SOLID_ANGLE_UNIT ( ) );
#779 = UNCERTAINTY_MEASURE_WITH_UNIT (LENGTH_MEASURE( 1.000000000000000082E-05 ), #401, 'distance_accuracy_value', 'NONE');
#780 = CARTESIAN_POINT ( 'NONE',  ( -4.999999999999999112, -4.000000000000000000, 0.04000000000000000083 ) ) ;
#781 = LINE ( 'NONE', #696, #1153 ) ;
#782 = CARTESIAN_POINT ( 'NONE',  ( 0.000000000000000000, -2.000000000000000000, 0.08999999999999999667 ) ) ;
#783 = FACE_OUTER_BOUND ( 'NONE', #836, .T. ) ;
#784 = SURFACE_STYLE_FILL_AREA ( #556 ) ;
#785 = ORIENTED_EDGE ( 'NONE', *, *, #564, .T. ) ;
#786 = VECTOR ( 'NONE', #1125, 39.37007874015748143 ) ;
#787 =( LENGTH_UNIT ( ) NAMED_UNIT ( * ) SI_UNIT ( $, .METRE. ) );
#788 = FACE_BOUND ( 'NONE', #810, .T. ) ;
#789 = DIRECTION ( 'NONE',  ( 0.000000000000000000, 0.000000000000000000, 1.000000000000000000 ) ) ;
#790 = VECTOR ( 'NONE', #513, 39.37007874015748143 ) ;
#791 = EDGE_CURVE ( 'NONE', #52, #248, #706, .T. ) ;
#792 = CARTESIAN_POINT ( 'NONE',  ( 5.000000000000000888, 3.999999999999999556, 0.04000000000000000083 ) ) ;
#793 = ORIENTED_EDGE ( 'NONE', *, *, #228, .T. ) ;
#794 = DIMENSIONAL_EXPONENTS ( 1.000000000000000000, 0.000000000000000000, 0.000000000000000000, 0.000000000000000000, 0.000000000000000000, 0.000000000000000000, 0.000000000000000000 ) ;
#795 = CARTESIAN_POINT ( 'NONE',  ( -2.624999999999999112, -4.500000000000000000, 0.06499999999999998834 ) ) ;
#796 = DIRECTION ( 'NONE',  ( -1.000000000000000000, 5.463695987328525451E-16, 0.000000000000000000 ) ) ;
#797 = DIRECTION ( 'NONE',  ( 0.000000000000000000, 0.000000000000000000, 1.000000000000000000 ) ) ;
#798 = PRESENTATION_LAYER_ASSIGNMENT (  '', '', ( #1019 ) ) ;
#799 = DIRECTION ( 'NONE',  ( -0.000000000000000000, 1.000000000000000000, -0.000000000000000000 ) ) ;
#800 = CARTESIAN_POINT ( 'NONE',  ( -2.999999999999999112, -2.000000000000000000, 0.08999999999999999667 ) ) ;
#801 = VECTOR ( 'NONE', #500, 39.37007874015748143 ) ;
#802 = CARTESIAN_POINT ( 'NONE',  ( -2.374999999999999112, -4.000000000000000000, 0.06499999999999998834 ) ) ;
#803 = VERTEX_POINT ( 'NONE', #234 ) ;
#804 = FACE_OUTER_BOUND ( 'NONE', #367, .T. ) ;
#805 = CARTESIAN_POINT ( 'NONE',  ( -2.549999999999998934, -4.500000000000000000, 0.04249999999999964223 ) ) ;
#806 = PRODUCT_DEFINITION ( 'UNKNOWN', '', #1139, #1075 ) ;
#807 = EDGE_CURVE ( 'NONE', #1132, #613, #1166, .T. ) ;
#808 = EDGE_CURVE ( 'NONE', #524, #147, #490, .T. ) ;
#809 = CARTESIAN_POINT ( 'NONE',  ( -2.624999999999999112, -4.500000000000000000, 0.06499999999999998834 ) ) ;
#810 = EDGE_LOOP ( 'NONE', ( #632, #445 ) ) ;
#811 = LENGTH_MEASURE_WITH_UNIT ( LENGTH_MEASURE( 0.02539999999999999897 ), #148 );
#812 = EDGE_CURVE ( 'NONE', #361, #430, #325, .T. ) ;
#813 = LINE ( 'NONE', #619, #790 ) ;
#814 =( GEOMETRIC_REPRESENTATION_CONTEXT ( 3 ) GLOBAL_UNCERTAINTY_ASSIGNED_CONTEXT ( ( #30 ) ) GLOBAL_UNIT_ASSIGNED_CONTEXT ( ( #291, #1160, #987 ) ) REPRESENTATION_CONTEXT ( 'NONE', 'WORKASPACE' ) );
#815 = CARTESIAN_POINT ( 'NONE',  ( -2.374999999999999112, -4.000000000000000000, 0.08750000000000007772 ) ) ;
#816 = ORIENTED_EDGE ( 'NONE', *, *, #647, .F. ) ;
#817 = ORIENTED_EDGE ( 'NONE', *, *, #835, .F. ) ;
#818 = ORIENTED_EDGE ( 'NONE', *, *, #884, .F. ) ;
#819 = EDGE_CURVE ( 'NONE', #1025, #644, #399, .T. ) ;
#820 = DIRECTION ( 'NONE',  ( 0.000000000000000000, 0.000000000000000000, -1.000000000000000000 ) ) ;
#821 = CIRCLE ( 'NONE', #573, 0.02250000000000008590 ) ;
#822 = DIRECTION ( 'NONE',  ( 0.000000000000000000, 0.000000000000000000, -1.000000000000000000 ) ) ;
#823 = ORIENTED_EDGE ( 'NONE', *, *, #861, .F. ) ;
#824 = ORIENTED_EDGE ( 'NONE', *, *, #364, .T. ) ;
#825 = EDGE_LOOP ( 'NONE', ( #65, #1117 ) ) ;
#826 =( LENGTH_UNIT ( ) NAMED_UNIT ( * ) SI_UNIT ( $, .METRE. ) );
#827 = EDGE_CURVE ( 'NONE', #898, #268, #821, .T. ) ;
#828 = DIRECTION ( 'NONE',  ( -0.000000000000000000, -1.000000000000000000, -0.000000000000000000 ) ) ;
#829 = ORIENTED_EDGE ( 'NONE', *, *, #681, .F. ) ;
#830 = ORIENTED_EDGE ( 'NONE', *, *, #940, .F. ) ;
#831 = LENGTH_MEASURE_WITH_UNIT ( LENGTH_MEASURE( 0.02539999999999999897 ), #552 );
#832 = CIRCLE ( 'NONE', #654, 0.02250000000000037387 ) ;
#833 = AXIS2_PLACEMENT_3D ( 'NONE', #545, #942, #931 ) ;
#834 = FILL_AREA_STYLE_COLOUR ( '', #999 ) ;
#835 = EDGE_CURVE ( 'NONE', #63, #248, #239, .T. ) ;
#836 = EDGE_LOOP ( 'NONE', ( #867, #909, #628, #141 ) ) ;
#837 = ORIENTED_EDGE ( 'NONE', *, *, #546, .F. ) ;
#838 = EDGE_CURVE ( 'NONE', #738, #268, #476, .T. ) ;
#839 = MECHANICAL_DESIGN_GEOMETRIC_PRESENTATION_REPRESENTATION (  '', ( #676 ), #244 ) ;
#840 = FACE_OUTER_BOUND ( 'NONE', #156, .T. ) ;
#841 = DIRECTION ( 'NONE',  ( -0.000000000000000000, -1.000000000000000000, -0.000000000000000000 ) ) ;
#842 = CIRCLE ( 'NONE', #109, 0.02250000000000033917 ) ;
#843 = ORIENTED_EDGE ( 'NONE', *, *, #924, .T. ) ;
#844 = DIRECTION ( 'NONE',  ( 1.000000000000000000, 0.000000000000000000, 0.000000000000000000 ) ) ;
#845 = CARTESIAN_POINT ( 'NONE',  ( 0.000000000000000000, -1.499999999999999778, 0.08999999999999999667 ) ) ;
#846 = PRESENTATION_LAYER_ASSIGNMENT (  '', '', ( #559 ) ) ;
#847 =( LENGTH_UNIT ( ) NAMED_UNIT ( * ) SI_UNIT ( $, .METRE. ) );
#848 =( CONVERSION_BASED_UNIT ( 'INCH', #586 ) LENGTH_UNIT ( ) NAMED_UNIT ( #1208 ) );
#849 = ADVANCED_FACE ( 'NONE', ( #442 ), #925, .T. ) ;
#850 = DIRECTION ( 'NONE',  ( 0.000000000000000000, 0.000000000000000000, -1.000000000000000000 ) ) ;
#851 = LENGTH_MEASURE_WITH_UNIT ( LENGTH_MEASURE( 0.02539999999999999897 ), #27 );
#852 = LENGTH_MEASURE_WITH_UNIT ( LENGTH_MEASURE( 0.02539999999999999897 ), #826 );
#853 = FACE_OUTER_BOUND ( 'NONE', #535, .T. ) ;
#854 = FILL_AREA_STYLE ('',( #1161 ) ) ;
#855 = AXIS2_PLACEMENT_3D ( 'NONE', #1043, #557, #820 ) ;
#856 = DIRECTION ( 'NONE',  ( -1.000000000000000000, 0.000000000000000000, 0.000000000000000000 ) ) ;
#857 = PLANE ( 'NONE',  #98 ) ;
#858 = VECTOR ( 'NONE', #200, 39.37007874015748143 ) ;
#859 = DIRECTION ( 'NONE',  ( -0.000000000000000000, 1.000000000000000000, -0.000000000000000000 ) ) ;
#860 = CARTESIAN_POINT ( 'NONE',  ( -2.624999999999999112, -4.500000000000000000, 0.08750000000000032752 ) ) ;
#861 = EDGE_CURVE ( 'NONE', #1006, #155, #1231, .T. ) ;
#862 = EDGE_CURVE ( 'NONE', #147, #524, #270, .T. ) ;
#863 = PLANE ( 'NONE',  #666 ) ;
#864 = CARTESIAN_POINT ( 'NONE',  ( -2.449999999999998845, -4.000000000000000000, 0.04249999999999961448 ) ) ;
#865 = CARTESIAN_POINT ( 'NONE',  ( -1.999999999999999112, -1.499999999999999778, 0.04000000000000000083 ) ) ;
#866 = DIRECTION ( 'NONE',  ( -0.000000000000000000, 1.000000000000000000, -0.000000000000000000 ) ) ;
#867 = ORIENTED_EDGE ( 'NONE', *, *, #924, .F. ) ;
#868 = DIRECTION ( 'NONE',  ( 0.000000000000000000, 0.000000000000000000, 1.000000000000000000 ) ) ;
#869 = VECTOR ( 'NONE', #799, 39.37007874015748143 ) ;
#870 = PRESENTATION_LAYER_ASSIGNMENT (  '', '', ( #276 ) ) ;
#871 = SURFACE_STYLE_USAGE ( .BOTH. , #307 ) ;
#872 = CARTESIAN_POINT ( 'NONE',  ( -2.374999999999999112, -4.500000000000000000, 0.04249999999999990591 ) ) ;
#873 =( NAMED_UNIT ( * ) PLANE_ANGLE_UNIT ( ) SI_UNIT ( $, .RADIAN. ) );
#874 = VECTOR ( 'NONE', #105, 39.37007874015748143 ) ;
#875 = DIMENSIONAL_EXPONENTS ( 1.000000000000000000, 0.000000000000000000, 0.000000000000000000, 0.000000000000000000, 0.000000000000000000, 0.000000000000000000, 0.000000000000000000 ) ;
#876 = SURFACE_STYLE_FILL_AREA ( #3 ) ;
#877 = DIRECTION ( 'NONE',  ( -1.000000000000000000, -0.000000000000000000, -0.000000000000000000 ) ) ;
#878 = LINE ( 'NONE', #28, #379 ) ;
#879 =( NAMED_UNIT ( * ) PLANE_ANGLE_UNIT ( ) SI_UNIT ( $, .RADIAN. ) );
#880 = CARTESIAN_POINT ( 'NONE',  ( -2.999999999999999112, -3.500000000000000000, 0.1880000000000000282 ) ) ;
#881 = CARTESIAN_POINT ( 'NONE',  ( -2.624999999999999112, -3.500000000000000000, 0.06499999999999998834 ) ) ;
#882 = ORIENTED_EDGE ( 'NONE', *, *, #1168, .T. ) ;
#883 = DIRECTION ( 'NONE',  ( -0.000000000000000000, -1.000000000000000000, -0.000000000000000000 ) ) ;
#884 = EDGE_CURVE ( 'NONE', #343, #1025, #173, .T. ) ;
#885 =( GEOMETRIC_REPRESENTATION_CONTEXT ( 3 ) GLOBAL_UNCERTAINTY_ASSIGNED_CONTEXT ( ( #388 ) ) GLOBAL_UNIT_ASSIGNED_CONTEXT ( ( #503, #238, #716 ) ) REPRESENTATION_CONTEXT ( 'NONE', 'WORKASPACE' ) );
#886 = DIRECTION ( 'NONE',  ( 0.000000000000000000, 1.000000000000000000, 0.000000000000000000 ) ) ;
#887 = ADVANCED_BREP_SHAPE_REPRESENTATION ( '8X10 Heating Pad', ( #623, #1180 ), #1036 ) ;
#888 = LINE ( 'NONE', #792, #1159 ) ;
#889 = ORIENTED_EDGE ( 'NONE', *, *, #564, .F. ) ;
#890 = PRESENTATION_LAYER_ASSIGNMENT (  '', '', ( #1176 ) ) ;
#891 = DIRECTION ( 'NONE',  ( -0.000000000000000000, 1.000000000000000000, -0.000000000000000000 ) ) ;
#892 = APPLICATION_PROTOCOL_DEFINITION ( 'draft international standard', 'automotive_design', 1998, #992 ) ;
#893 =( GEOMETRIC_REPRESENTATION_CONTEXT ( 3 ) GLOBAL_UNCERTAINTY_ASSIGNED_CONTEXT ( ( #749 ) ) GLOBAL_UNIT_ASSIGNED_CONTEXT ( ( #172, #82, #447 ) ) REPRESENTATION_CONTEXT ( 'NONE', 'WORKASPACE' ) );
#894 = CARTESIAN_POINT ( 'NONE',  ( -2.999999999999999112, 0.000000000000000000, 0.04000000000000000083 ) ) ;
#895 = PRESENTATION_LAYER_ASSIGNMENT (  '', '', ( #1058 ) ) ;
#896 = CARTESIAN_POINT ( 'NONE',  ( 0.000000000000000000, -2.000000000000000000, 0.04000000000000000083 ) ) ;
#897 = SURFACE_STYLE_FILL_AREA ( #56 ) ;
#898 = VERTEX_POINT ( 'NONE', #815 ) ;
#899 = CARTESIAN_POINT ( 'NONE',  ( -2.624999999999999112, -4.500000000000000000, 0.04249999999999964223 ) ) ;
#900 = FILL_AREA_STYLE ('',( #1097 ) ) ;
#901 = CIRCLE ( 'NONE', #146, 0.02250000000000034958 ) ;
#902 = EDGE_CURVE ( 'NONE', #70, #1202, #717, .T. ) ;
#903 = FILL_AREA_STYLE ('',( #615 ) ) ;
#904 = CARTESIAN_POINT ( 'NONE',  ( -2.374999999999999112, -2.000000000000000000, 0.04249999999999990591 ) ) ;
#905 = ORIENTED_EDGE ( 'NONE', *, *, #20, .T. ) ;
#906 = CYLINDRICAL_SURFACE ( 'NONE', #993, 0.02250000000000033917 ) ;
#907 = FACE_OUTER_BOUND ( 'NONE', #1112, .T. ) ;
#908 = ORIENTED_EDGE ( 'NONE', *, *, #1044, .F. ) ;
#909 = ORIENTED_EDGE ( 'NONE', *, *, #1190, .T. ) ;
#910 = EDGE_LOOP ( 'NONE', ( #326, #498, #90, #254 ) ) ;
#911 = FILL_AREA_STYLE ('',( #53 ) ) ;
#912 = SURFACE_STYLE_FILL_AREA ( #900 ) ;
#913 = VECTOR ( 'NONE', #1049, 39.37007874015748143 ) ;
#914 = CARTESIAN_POINT ( 'NONE',  ( -4.999999999999999112, 3.999999999999999556, 0.000000000000000000 ) ) ;
#915 = ORIENTED_EDGE ( 'NONE', *, *, #664, .F. ) ;
#916 = ORIENTED_EDGE ( 'NONE', *, *, #521, .T. ) ;
#917 = ORIENTED_EDGE ( 'NONE', *, *, #580, .T. ) ;
#918 =( NAMED_UNIT ( * ) PLANE_ANGLE_UNIT ( ) SI_UNIT ( $, .RADIAN. ) );
#919 = CIRCLE ( 'NONE', #1022, 0.02250000000000033917 ) ;
#920 = CARTESIAN_POINT ( 'NONE',  ( 0.000000000000000000, 0.000000000000000000, 0.1880000000000000282 ) ) ;
#921 = ORIENTED_EDGE ( 'NONE', *, *, #709, .T. ) ;
#922 = ORIENTED_EDGE ( 'NONE', *, *, #47, .T. ) ;
#923 = DIRECTION ( 'NONE',  ( -0.000000000000000000, 1.000000000000000000, -0.000000000000000000 ) ) ;
#924 = EDGE_CURVE ( 'NONE', #35, #1132, #901, .T. ) ;
#925 = PLANE ( 'NONE',  #1062 ) ;
#926 = ORIENTED_EDGE ( 'NONE', *, *, #250, .T. ) ;
#927 = ORIENTED_EDGE ( 'NONE', *, *, #414, .F. ) ;
#928 = SURFACE_STYLE_USAGE ( .BOTH. , #351 ) ;
#929 = VECTOR ( 'NONE', #457, 39.37007874015748143 ) ;
#930 = CIRCLE ( 'NONE', #443, 0.02250000000000034958 ) ;
#931 = DIRECTION ( 'NONE',  ( 0.000000000000000000, 0.000000000000000000, 1.000000000000000000 ) ) ;
#932 = CARTESIAN_POINT ( 'NONE',  ( -1.999999999999999334, -4.000000000000000000, 0.04000000000000000083 ) ) ;
#933 = ORIENTED_EDGE ( 'NONE', *, *, #1204, .F. ) ;
#934 =( GEOMETRIC_REPRESENTATION_CONTEXT ( 3 ) GLOBAL_UNCERTAINTY_ASSIGNED_CONTEXT ( ( #660 ) ) GLOBAL_UNIT_ASSIGNED_CONTEXT ( ( #93, #727, #536 ) ) REPRESENTATION_CONTEXT ( 'NONE', 'WORKASPACE' ) );
#935 = DIRECTION ( 'NONE',  ( 0.000000000000000000, -0.000000000000000000, -1.000000000000000000 ) ) ;
#936 = ADVANCED_FACE ( 'NONE', ( #907 ), #612, .F. ) ;
#937 = CARTESIAN_POINT ( 'NONE',  ( -2.624999999999999112, -4.500000000000000000, 0.06499999999999998834 ) ) ;
#938 = CARTESIAN_POINT ( 'NONE',  ( -2.374999999999999112, -4.500000000000000000, 0.06499999999999998834 ) ) ;
#939 = ORIENTED_EDGE ( 'NONE', *, *, #83, .F. ) ;
#940 = EDGE_CURVE ( 'NONE', #505, #1179, #1118, .T. ) ;
#941 = SURFACE_STYLE_USAGE ( .BOTH. , #211 ) ;
#942 = DIRECTION ( 'NONE',  ( -0.000000000000000000, 1.000000000000000000, -0.000000000000000000 ) ) ;
#943 = DIRECTION ( 'NONE',  ( -0.000000000000000000, -1.000000000000000000, -0.000000000000000000 ) ) ;
#944 = EDGE_CURVE ( 'NONE', #625, #275, #334, .T. ) ;
#945 = VECTOR ( 'NONE', #281, 39.37007874015748143 ) ;
#946 = FILL_AREA_STYLE_COLOUR ( '', #547 ) ;
#947 = CYLINDRICAL_SURFACE ( 'NONE', #732, 0.02250000000000008590 ) ;
#948 = CARTESIAN_POINT ( 'NONE',  ( -2.624999999999999112, -2.000000000000000000, 0.06499999999999998834 ) ) ;
#949 = AXIS2_PLACEMENT_3D ( 'NONE', #54, #135, #333 ) ;
#950 = DIRECTION ( 'NONE',  ( 0.000000000000000000, -0.000000000000000000, 1.000000000000000000 ) ) ;
#951 = LINE ( 'NONE', #468, #1053 ) ;
#952 = PRESENTATION_STYLE_ASSIGNMENT (( #113 ) ) ;
#953 = LINE ( 'NONE', #381, #608 ) ;
#954 = AXIS2_PLACEMENT_3D ( 'NONE', #390, #883, #1093 ) ;
#955 = FILL_AREA_STYLE_COLOUR ( '', #317 ) ;
#956 = SURFACE_STYLE_USAGE ( .BOTH. , #562 ) ;
#957 = ORIENTED_EDGE ( 'NONE', *, *, #159, .F. ) ;
#958 = LINE ( 'NONE', #577, #312 ) ;
#959 =( NAMED_UNIT ( * ) SI_UNIT ( $, .STERADIAN. ) SOLID_ANGLE_UNIT ( ) );
#960 = DIRECTION ( 'NONE',  ( 0.000000000000000000, 1.000000000000000000, 0.000000000000000000 ) ) ;
#961 = PLANE ( 'NONE',  #672 ) ;
#962 = PRESENTATION_STYLE_ASSIGNMENT (( #956 ) ) ;
#963 =( LENGTH_UNIT ( ) NAMED_UNIT ( * ) SI_UNIT ( $, .METRE. ) );
#964 =( NAMED_UNIT ( * ) PLANE_ANGLE_UNIT ( ) SI_UNIT ( $, .RADIAN. ) );
#965 = LENGTH_MEASURE_WITH_UNIT ( LENGTH_MEASURE( 0.02539999999999999897 ), #1074 );
#966 = UNCERTAINTY_MEASURE_WITH_UNIT (LENGTH_MEASURE( 1.000000000000000082E-05 ), #848, 'distance_accuracy_value', 'NONE');
#967 = FACE_BOUND ( 'NONE', #160, .T. ) ;
#968 = CARTESIAN_POINT ( 'NONE',  ( -2.374999999999999112, -4.500000000000000000, 0.04249999999999990591 ) ) ;
#969 = FACE_BOUND ( 'NONE', #617, .T. ) ;
#970 = ORIENTED_EDGE ( 'NONE', *, *, #838, .F. ) ;
#971 = EDGE_CURVE ( 'NONE', #1202, #1031, #1200, .T. ) ;
#972 = SURFACE_STYLE_FILL_AREA ( #286 ) ;
#973 = CARTESIAN_POINT ( 'NONE',  ( -2.449999999999998845, -4.500000000000000000, 0.08750000000000036915 ) ) ;
#974 = DIMENSIONAL_EXPONENTS ( 1.000000000000000000, 0.000000000000000000, 0.000000000000000000, 0.000000000000000000, 0.000000000000000000, 0.000000000000000000, 0.000000000000000000 ) ;
#975 =( CONVERSION_BASED_UNIT ( 'INCH', #592 ) LENGTH_UNIT ( ) NAMED_UNIT ( #974 ) );
#976 = EDGE_LOOP ( 'NONE', ( #313, #1111 ) ) ;
#977 = UNCERTAINTY_MEASURE_WITH_UNIT (LENGTH_MEASURE( 1.000000000000000082E-05 ), #975, 'distance_accuracy_value', 'NONE');
#978 = CARTESIAN_POINT ( 'NONE',  ( -4.999999999999999112, -4.000000000000000000, 0.04000000000000000083 ) ) ;
#979 = SURFACE_STYLE_USAGE ( .BOTH. , #1182 ) ;
#980 = FACE_OUTER_BOUND ( 'NONE', #1016, .T. ) ;
#981 = SURFACE_STYLE_USAGE ( .BOTH. , #1085 ) ;
#982 = DIRECTION ( 'NONE',  ( -0.000000000000000000, -1.000000000000000000, -0.000000000000000000 ) ) ;
#983 = AXIS2_PLACEMENT_3D ( 'NONE', #663, #758, #560 ) ;
#984 = AXIS2_PLACEMENT_3D ( 'NONE', #187, #841, #752 ) ;
#985 = ORIENTED_EDGE ( 'NONE', *, *, #609, .T. ) ;
#986 = EDGE_CURVE ( 'NONE', #1013, #1001, #510, .T. ) ;
#987 =( NAMED_UNIT ( * ) SI_UNIT ( $, .STERADIAN. ) SOLID_ANGLE_UNIT ( ) );
#988 = STYLED_ITEM ( 'NONE', ( #735 ), #370 ) ;
#989 = CARTESIAN_POINT ( 'NONE',  ( -2.549999999999998934, -4.563639610306790217, 0.06499999999999998834 ) ) ;
#990 = ADVANCED_FACE ( 'NONE', ( #1105 ), #251, .T. ) ;
#991 = EDGE_CURVE ( 'NONE', #613, #71, #842, .T. ) ;
#992 = APPLICATION_CONTEXT ( 'automotive_design' ) ;
#993 = AXIS2_PLACEMENT_3D ( 'NONE', #699, #593, #497 ) ;
#994 = CARTESIAN_POINT ( 'NONE',  ( -1.999999999999999112, 0.000000000000000000, 0.08999999999999999667 ) ) ;
#995 = SURFACE_STYLE_FILL_AREA ( #1131 ) ;
#996 = VERTEX_POINT ( 'NONE', #522 ) ;
#997 = SURFACE_STYLE_FILL_AREA ( #911 ) ;
#998 = DIRECTION ( 'NONE',  ( 0.000000000000000000, 0.000000000000000000, -1.000000000000000000 ) ) ;
#999 = COLOUR_RGB ( '',0.2980392156862745057, 0.2980392156862745057, 0.2980392156862745057 ) ;
#1000 = DIRECTION ( 'NONE',  ( 0.000000000000000000, -1.000000000000000000, 0.000000000000000000 ) ) ;
#1001 = VERTEX_POINT ( 'NONE', #914 ) ;
#1002 = ORIENTED_EDGE ( 'NONE', *, *, #807, .T. ) ;
#1003 = CARTESIAN_POINT ( 'NONE',  ( -2.374999999999999112, -4.500000000000000000, 0.08750000000000007772 ) ) ;
#1004 = COLOUR_RGB ( '',0.2980392156862745057, 0.2980392156862745057, 0.2980392156862745057 ) ;
#1005 = DIRECTION ( 'NONE',  ( 1.000000000000000000, 0.000000000000000000, -0.000000000000000000 ) ) ;
#1006 = VERTEX_POINT ( 'NONE', #904 ) ;
#1007 = COLOUR_RGB ( '',0.2980392156862745057, 0.2980392156862745057, 0.2980392156862745057 ) ;
#1008 = ORIENTED_EDGE ( 'NONE', *, *, #703, .T. ) ;
#1009 = ORIENTED_EDGE ( 'NONE', *, *, #720, .F. ) ;
#1010 =( CONVERSION_BASED_UNIT ( 'INCH', #811 ) LENGTH_UNIT ( ) NAMED_UNIT ( #622 ) );
#1011 = SURFACE_SIDE_STYLE ('',( #1020 ) ) ;
#1012 =( LENGTH_UNIT ( ) NAMED_UNIT ( * ) SI_UNIT ( $, .METRE. ) );
#1013 = VERTEX_POINT ( 'NONE', #1225 ) ;
#1014 = EDGE_CURVE ( 'NONE', #700, #1001, #259, .T. ) ;
#1015 = CARTESIAN_POINT ( 'NONE',  ( -2.999999999999999112, -3.500000000000000000, 0.1880000000000000282 ) ) ;
#1016 = EDGE_LOOP ( 'NONE', ( #1218, #921, #1026, #1171 ) ) ;
#1017 = ORIENTED_EDGE ( 'NONE', *, *, #1168, .F. ) ;
#1018 = ORIENTED_EDGE ( 'NONE', *, *, #310, .F. ) ;
#1019 = STYLED_ITEM ( 'NONE', ( #775 ), #544 ) ;
#1020 = SURFACE_STYLE_FILL_AREA ( #1236 ) ;
#1021 = FILL_AREA_STYLE_COLOUR ( '', #184 ) ;
#1022 = AXIS2_PLACEMENT_3D ( 'NONE', #948, #943, #366 ) ;
#1023 = FILL_AREA_STYLE_COLOUR ( '', #736 ) ;
#1024 = CARTESIAN_POINT ( 'NONE',  ( -2.999999999999999112, -4.000000000000000000, 0.1880000000000000282 ) ) ;
#1025 = VERTEX_POINT ( 'NONE', #1015 ) ;
#1026 = ORIENTED_EDGE ( 'NONE', *, *, #808, .T. ) ;
#1027 = PRESENTATION_STYLE_ASSIGNMENT (( #928 ) ) ;
#1028 = SURFACE_STYLE_USAGE ( .BOTH. , #359 ) ;
#1029 = DIRECTION ( 'NONE',  ( -0.000000000000000000, -1.000000000000000000, -0.000000000000000000 ) ) ;
#1030 = EDGE_CURVE ( 'NONE', #1120, #114, #358, .T. ) ;
#1031 = VERTEX_POINT ( 'NONE', #1217 ) ;
#1032 = ORIENTED_EDGE ( 'NONE', *, *, #1071, .F. ) ;
#1033 = FACE_OUTER_BOUND ( 'NONE', #491, .T. ) ;
#1034 = ADVANCED_FACE ( 'NONE', ( #348 ), #265, .T. ) ;
#1035 = AXIS2_PLACEMENT_3D ( 'NONE', #191, #1158, #850 ) ;
#1036 =( GEOMETRIC_REPRESENTATION_CONTEXT ( 3 ) GLOBAL_UNCERTAINTY_ASSIGNED_CONTEXT ( ( #555 ) ) GLOBAL_UNIT_ASSIGNED_CONTEXT ( ( #29, #879, #778 ) ) REPRESENTATION_CONTEXT ( 'NONE', 'WORKASPACE' ) );
#1037 =( NAMED_UNIT ( * ) PLANE_ANGLE_UNIT ( ) SI_UNIT ( $, .RADIAN. ) );
#1038 = EDGE_CURVE ( 'NONE', #343, #523, #1144, .T. ) ;
#1039 = CARTESIAN_POINT ( 'NONE',  ( -2.624999999999999112, -4.500000000000000000, 0.04249999999999964223 ) ) ;
#1040 = STYLED_ITEM ( 'NONE', ( #962 ), #150 ) ;
#1041 = UNCERTAINTY_MEASURE_WITH_UNIT (LENGTH_MEASURE( 1.000000000000000082E-05 ), #514, 'distance_accuracy_value', 'NONE');
#1042 = EDGE_LOOP ( 'NONE', ( #179, #532, #1110, #692 ) ) ;
#1043 = CARTESIAN_POINT ( 'NONE',  ( -2.374999999999999112, -4.500000000000000000, 0.06499999999999998834 ) ) ;
#1044 = EDGE_CURVE ( 'NONE', #71, #613, #431, .T. ) ;
#1045 = ORIENTED_EDGE ( 'NONE', *, *, #940, .T. ) ;
#1046 = DIRECTION ( 'NONE',  ( 0.000000000000000000, -1.000000000000000000, 0.000000000000000000 ) ) ;
#1047 =( CONVERSION_BASED_UNIT ( 'INCH', #851 ) LENGTH_UNIT ( ) NAMED_UNIT ( #219 ) );
#1048 = COLOUR_RGB ( '',0.2980392156862745057, 0.2980392156862745057, 0.2980392156862745057 ) ;
#1049 = DIRECTION ( 'NONE',  ( -0.000000000000000000, 1.000000000000000000, -0.000000000000000000 ) ) ;
#1050 = UNCERTAINTY_MEASURE_WITH_UNIT (LENGTH_MEASURE( 1.000000000000000082E-05 ), #1047, 'distance_accuracy_value', 'NONE');
#1051 = CARTESIAN_POINT ( 'NONE',  ( -2.999999999999999112, -3.500000000000000000, 0.1880000000000000282 ) ) ;
#1052 = CARTESIAN_POINT ( 'NONE',  ( -2.624999999999999112, -4.000000000000000000, 0.08750000000000032752 ) ) ;
#1053 = VECTOR ( 'NONE', #859, 39.37007874015748143 ) ;
#1054 = CARTESIAN_POINT ( 'NONE',  ( -2.374999999999999112, -4.500000000000000000, 0.06499999999999998834 ) ) ;
#1055 = FACE_BOUND ( 'NONE', #825, .T. ) ;
#1056 = CARTESIAN_POINT ( 'NONE',  ( -2.374999999999999112, -4.500000000000000000, 0.06499999999999998834 ) ) ;
#1057 = EDGE_CURVE ( 'NONE', #753, #304, #919, .T. ) ;
#1058 = STYLED_ITEM ( 'NONE', ( #74 ), #450 ) ;
#1059 = CARTESIAN_POINT ( 'NONE',  ( -4.999999999999999112, -4.000000000000000000, 0.04000000000000000083 ) ) ;
#1060 = DIRECTION ( 'NONE',  ( 0.000000000000000000, -0.000000000000000000, -1.000000000000000000 ) ) ;
#1061 = CARTESIAN_POINT ( 'NONE',  ( -2.624999999999999112, -4.500000000000000000, 0.06499999999999998834 ) ) ;
#1062 = AXIS2_PLACEMENT_3D ( 'NONE', #1194, #616, #423 ) ;
#1063 = DIRECTION ( 'NONE',  ( -1.000000000000000000, 0.000000000000000000, 0.000000000000000000 ) ) ;
#1064 = CARTESIAN_POINT ( 'NONE',  ( -2.449999999999998845, -4.000000000000000000, 0.08750000000000036915 ) ) ;
#1065 =( NAMED_UNIT ( * ) PLANE_ANGLE_UNIT ( ) SI_UNIT ( $, .RADIAN. ) );
#1066 = DIRECTION ( 'NONE',  ( 0.000000000000000000, 0.000000000000000000, 1.000000000000000000 ) ) ;
#1067 = DIRECTION ( 'NONE',  ( 0.000000000000000000, -1.000000000000000000, 0.000000000000000000 ) ) ;
#1068 = DIRECTION ( 'NONE',  ( 0.000000000000000000, 1.000000000000000000, 0.000000000000000000 ) ) ;
#1069 = LINE ( 'NONE', #131, #801 ) ;
#1070 = CARTESIAN_POINT ( 'NONE',  ( 5.000000000000000888, -4.000000000000000000, 0.04000000000000000083 ) ) ;
#1071 = EDGE_CURVE ( 'NONE', #304, #753, #1154, .T. ) ;
#1072 = SURFACE_STYLE_USAGE ( .BOTH. , #96 ) ;
#1073 = EDGE_LOOP ( 'NONE', ( #553, #634, #182, #649 ) ) ;
#1074 =( LENGTH_UNIT ( ) NAMED_UNIT ( * ) SI_UNIT ( $, .METRE. ) );
#1075 = PRODUCT_DEFINITION_CONTEXT ( 'detailed design', #542, 'design' ) ;
#1076 = AXIS2_PLACEMENT_3D ( 'NONE', #6, #856, #377 ) ;
#1077 = PRESENTATION_STYLE_ASSIGNMENT (( #871 ) ) ;
#1078 = DIRECTION ( 'NONE',  ( -0.000000000000000000, -0.000000000000000000, -1.000000000000000000 ) ) ;
#1079 = PRESENTATION_STYLE_ASSIGNMENT (( #697 ) ) ;
#1080 =( LENGTH_UNIT ( ) NAMED_UNIT ( * ) SI_UNIT ( $, .METRE. ) );
#1081 = LENGTH_MEASURE_WITH_UNIT ( LENGTH_MEASURE( 0.02539999999999999897 ), #1090 );
#1082 = DIMENSIONAL_EXPONENTS ( 1.000000000000000000, 0.000000000000000000, 0.000000000000000000, 0.000000000000000000, 0.000000000000000000, 0.000000000000000000, 0.000000000000000000 ) ;
#1083 = ORIENTED_EDGE ( 'NONE', *, *, #33, .F. ) ;
#1084 = AXIS2_PLACEMENT_3D ( 'NONE', #204, #374, #667 ) ;
#1085 = SURFACE_SIDE_STYLE ('',( #233 ) ) ;
#1086 = CARTESIAN_POINT ( 'NONE',  ( -2.374999999999999112, -2.000000000000000000, 0.06499999999999998834 ) ) ;
#1087 = DIRECTION ( 'NONE',  ( 1.000000000000000000, 0.000000000000000000, 0.000000000000000000 ) ) ;
#1088 =( NAMED_UNIT ( * ) SI_UNIT ( $, .STERADIAN. ) SOLID_ANGLE_UNIT ( ) );
#1089 = VECTOR ( 'NONE', #32, 39.37007874015748143 ) ;
#1090 =( LENGTH_UNIT ( ) NAMED_UNIT ( * ) SI_UNIT ( $, .METRE. ) );
#1091 = VECTOR ( 'NONE', #344, 39.37007874015748143 ) ;
#1092 = LENGTH_MEASURE_WITH_UNIT ( LENGTH_MEASURE( 0.02539999999999999897 ), #787 );
#1093 = DIRECTION ( 'NONE',  ( 0.000000000000000000, 0.000000000000000000, 1.000000000000000000 ) ) ;
#1094 = LENGTH_MEASURE_WITH_UNIT ( LENGTH_MEASURE( 0.02539999999999999897 ), #232 );
#1095 = CARTESIAN_POINT ( 'NONE',  ( -2.549999999999998934, -4.500000000000000000, 0.08750000000000032752 ) ) ;
#1096 = EDGE_CURVE ( 'NONE', #996, #753, #1140, .T. ) ;
#1097 = FILL_AREA_STYLE_COLOUR ( '', #740 ) ;
#1098 = DIRECTION ( 'NONE',  ( -0.000000000000000000, -0.000000000000000000, -1.000000000000000000 ) ) ;
#1099 = CARTESIAN_POINT ( 'NONE',  ( -2.549999999999998934, -4.563639610306790217, 0.08750000000000032752 ) ) ;
#1100 = PRODUCT_CONTEXT ( 'NONE', #992, 'mechanical' ) ;
#1101 = STYLED_ITEM ( 'NONE', ( #1079 ), #887 ) ;
#1102 = ORIENTED_EDGE ( 'NONE', *, *, #410, .F. ) ;
#1103 = DIRECTION ( 'NONE',  ( -0.000000000000000000, 1.000000000000000000, -0.000000000000000000 ) ) ;
#1104 = COLOUR_RGB ( '',0.2980392156862745057, 0.2980392156862745057, 0.2980392156862745057 ) ;
#1105 = FACE_OUTER_BOUND ( 'NONE', #174, .T. ) ;
#1106 = ORIENTED_EDGE ( 'NONE', *, *, #609, .F. ) ;
#1107 = DIRECTION ( 'NONE',  ( 0.000000000000000000, 0.000000000000000000, 1.000000000000000000 ) ) ;
#1108 =( NAMED_UNIT ( * ) SI_UNIT ( $, .STERADIAN. ) SOLID_ANGLE_UNIT ( ) );
#1109 = DIRECTION ( 'NONE',  ( -0.000000000000000000, -1.000000000000000000, -0.000000000000000000 ) ) ;
#1110 = ORIENTED_EDGE ( 'NONE', *, *, #819, .T. ) ;
#1111 = ORIENTED_EDGE ( 'NONE', *, *, #1115, .T. ) ;
#1112 = EDGE_LOOP ( 'NONE', ( #518, #1203, #889, #519 ) ) ;
#1113 = FACE_OUTER_BOUND ( 'NONE', #595, .T. ) ;
#1114 = MECHANICAL_DESIGN_GEOMETRIC_PRESENTATION_REPRESENTATION (  '', ( #559 ), #252 ) ;
#1115 = EDGE_CURVE ( 'NONE', #114, #1120, #368, .T. ) ;
#1116 =( GEOMETRIC_REPRESENTATION_CONTEXT ( 3 ) GLOBAL_UNCERTAINTY_ASSIGNED_CONTEXT ( ( #12 ) ) GLOBAL_UNIT_ASSIGNED_CONTEXT ( ( #108, #1065, #1152 ) ) REPRESENTATION_CONTEXT ( 'NONE', 'WORKASPACE' ) );
#1117 = ORIENTED_EDGE ( 'NONE', *, *, #808, .F. ) ;
#1118 = LINE ( 'NONE', #743, #297 ) ;
#1119 = EDGE_LOOP ( 'NONE', ( #85, #263 ) ) ;
#1120 = VERTEX_POINT ( 'NONE', #373 ) ;
#1121 = STYLED_ITEM ( 'NONE', ( #1077 ), #178 ) ;
#1122 = VERTEX_POINT ( 'NONE', #756 ) ;
#1123 = LINE ( 'NONE', #1003, #9 ) ;
#1124 = VECTOR ( 'NONE', #311, 39.37007874015748143 ) ;
#1125 = DIRECTION ( 'NONE',  ( 1.000000000000000000, 0.000000000000000000, 0.000000000000000000 ) ) ;
#1126 = CARTESIAN_POINT ( 'NONE',  ( -2.624999999999999112, -4.000000000000000000, 0.06499999999999998834 ) ) ;
#1127 = EDGE_LOOP ( 'NONE', ( #439, #332, #1191, #357 ) ) ;
#1128 = ORIENTED_EDGE ( 'NONE', *, *, #24, .T. ) ;
#1129 = VECTOR ( 'NONE', #1151, 39.37007874015748143 ) ;
#1130 = AXIS2_PLACEMENT_3D ( 'NONE', #37, #982, #49 ) ;
#1131 = FILL_AREA_STYLE ('',( #834 ) ) ;
#1132 = VERTEX_POINT ( 'NONE', #563 ) ;
#1133 = ORIENTED_EDGE ( 'NONE', *, *, #446, .F. ) ;
#1134 = ADVANCED_FACE ( 'NONE', ( #11 ), #106, .F. ) ;
#1135 = SURFACE_SIDE_STYLE ('',( #751 ) ) ;
#1136 = DIRECTION ( 'NONE',  ( 0.000000000000000000, 1.000000000000000000, -0.000000000000000000 ) ) ;
#1137 = ORIENTED_EDGE ( 'NONE', *, *, #1190, .F. ) ;
#1138 = CARTESIAN_POINT ( 'NONE',  ( -1.999999999999999334, -4.000000000000000000, 0.04000000000000000083 ) ) ;
#1139 = PRODUCT_DEFINITION_FORMATION_WITH_SPECIFIED_SOURCE ( 'ANY', '', #517, .NOT_KNOWN. ) ;
#1140 = LINE ( 'NONE', #860, #913 ) ;
#1141 = CARTESIAN_POINT ( 'NONE',  ( 0.000000000000000000, 0.000000000000000000, 0.04000000000000000083 ) ) ;
#1142 = LINE ( 'NONE', #759, #874 ) ;
#1143 = VECTOR ( 'NONE', #22, 39.37007874015748143 ) ;
#1144 = LINE ( 'NONE', #95, #858 ) ;
#1145 = DIRECTION ( 'NONE',  ( 0.000000000000000000, 0.000000000000000000, -1.000000000000000000 ) ) ;
#1146 = STYLED_ITEM ( 'NONE', ( #1192 ), #50 ) ;
#1147 = CYLINDRICAL_SURFACE ( 'NONE', #346, 0.02250000000000033917 ) ;
#1148 = FACE_OUTER_BOUND ( 'NONE', #739, .T. ) ;
#1149 = SURFACE_STYLE_FILL_AREA ( #686 ) ;
#1150 = COLOUR_RGB ( '',0.2980392156862745057, 0.2980392156862745057, 0.2980392156862745057 ) ;
#1151 = DIRECTION ( 'NONE',  ( -0.000000000000000000, -1.000000000000000000, -0.000000000000000000 ) ) ;
#1152 =( NAMED_UNIT ( * ) SI_UNIT ( $, .STERADIAN. ) SOLID_ANGLE_UNIT ( ) );
#1153 = VECTOR ( 'NONE', #1078, 39.37007874015748143 ) ;
#1154 = CIRCLE ( 'NONE', #984, 0.02250000000000033917 ) ;
#1155 = CARTESIAN_POINT ( 'NONE',  ( -2.549999999999998934, -4.500000000000000000, 0.06499999999999998834 ) ) ;
#1156 =( GEOMETRIC_REPRESENTATION_CONTEXT ( 3 ) GLOBAL_UNCERTAINTY_ASSIGNED_CONTEXT ( ( #602 ) ) GLOBAL_UNIT_ASSIGNED_CONTEXT ( ( #347, #714, #235 ) ) REPRESENTATION_CONTEXT ( 'NONE', 'WORKASPACE' ) );
#1157 = FILL_AREA_STYLE_COLOUR ( '', #40 ) ;
#1158 = DIRECTION ( 'NONE',  ( 0.000000000000000000, -1.000000000000000000, 0.000000000000000000 ) ) ;
#1159 = VECTOR ( 'NONE', #601, 39.37007874015748143 ) ;
#1160 =( NAMED_UNIT ( * ) PLANE_ANGLE_UNIT ( ) SI_UNIT ( $, .RADIAN. ) );
#1161 = FILL_AREA_STYLE_COLOUR ( '', #1150 ) ;
#1162 = CARTESIAN_POINT ( 'NONE',  ( 5.000000000000000888, -4.000000000000000000, 0.04000000000000000083 ) ) ;
#1163 = UNCERTAINTY_MEASURE_WITH_UNIT (LENGTH_MEASURE( 1.000000000000000082E-05 ), #190, 'distance_accuracy_value', 'NONE');
#1164 = ADVANCED_FACE ( 'NONE', ( #1148 ), #670, .T. ) ;
#1165 = LINE ( 'NONE', #1051, #455 ) ;
#1166 = LINE ( 'NONE', #122, #451 ) ;
#1167 = VECTOR ( 'NONE', #722, 39.37007874015748143 ) ;
#1168 = EDGE_CURVE ( 'NONE', #221, #304, #953, .T. ) ;
#1169 = FACE_OUTER_BOUND ( 'NONE', #550, .T. ) ;
#1170 = EDGE_CURVE ( 'NONE', #505, #275, #548, .T. ) ;
#1171 = ORIENTED_EDGE ( 'NONE', *, *, #20, .F. ) ;
#1172 = EDGE_LOOP ( 'NONE', ( #927, #1018, #606, #525 ) ) ;
#1173 = LINE ( 'NONE', #677, #734 ) ;
#1174 = DIRECTION ( 'NONE',  ( 0.000000000000000000, 0.000000000000000000, 1.000000000000000000 ) ) ;
#1175 = LINE ( 'NONE', #488, #869 ) ;
#1176 = STYLED_ITEM ( 'NONE', ( #683 ), #324 ) ;
#1177 = EDGE_CURVE ( 'NONE', #430, #92, #448, .T. ) ;
#1178 = PRESENTATION_LAYER_ASSIGNMENT (  '', '', ( #309 ) ) ;
#1179 = VERTEX_POINT ( 'NONE', #273 ) ;
#1180 = AXIS2_PLACEMENT_3D ( 'NONE', #501, #797, #1087 ) ;
#1181 = PLANE ( 'NONE',  #478 ) ;
#1182 = SURFACE_SIDE_STYLE ('',( #705 ) ) ;
#1183 = CYLINDRICAL_SURFACE ( 'NONE', #718, 0.02250000000000037387 ) ;
#1184 = CARTESIAN_POINT ( 'NONE',  ( -2.449999999999998845, -4.563639610306790217, 0.04249999999999961448 ) ) ;
#1185 = APPLICATION_PROTOCOL_DEFINITION ( 'draft international standard', 'automotive_design', 1998, #542 ) ;
#1186 = VECTOR ( 'NONE', #1209, 39.37007874015748143 ) ;
#1187 = CARTESIAN_POINT ( 'NONE',  ( -1.999999999999999334, -4.000000000000000000, 0.1880000000000000282 ) ) ;
#1188 = DIRECTION ( 'NONE',  ( 0.000000000000000000, 0.000000000000000000, 1.000000000000000000 ) ) ;
#1189 = DIRECTION ( 'NONE',  ( 0.000000000000000000, 0.000000000000000000, 1.000000000000000000 ) ) ;
#1190 = EDGE_CURVE ( 'NONE', #35, #71, #653, .T. ) ;
#1191 = ORIENTED_EDGE ( 'NONE', *, *, #159, .T. ) ;
#1192 = PRESENTATION_STYLE_ASSIGNMENT (( #327 ) ) ;
#1193 =( NAMED_UNIT ( * ) SI_UNIT ( $, .STERADIAN. ) SOLID_ANGLE_UNIT ( ) );
#1194 = CARTESIAN_POINT ( 'NONE',  ( 0.000000000000000000, 0.000000000000000000, 0.000000000000000000 ) ) ;
#1195 = VECTOR ( 'NONE', #391, 39.37007874015748143 ) ;
#1196 = VECTOR ( 'NONE', #1136, 39.37007874015748143 ) ;
#1197 = ORIENTED_EDGE ( 'NONE', *, *, #446, .T. ) ;
#1198 = CARTESIAN_POINT ( 'NONE',  ( -2.374999999999999112, -4.500000000000000000, 0.04249999999999990591 ) ) ;
#1199 = MECHANICAL_DESIGN_GEOMETRIC_PRESENTATION_REPRESENTATION (  '', ( #1040 ), #421 ) ;
#1200 = LINE ( 'NONE', #84, #643 ) ;
#1201 = ORIENTED_EDGE ( 'NONE', *, *, #986, .T. ) ;
#1202 = VERTEX_POINT ( 'NONE', #215 ) ;
#1203 = ORIENTED_EDGE ( 'NONE', *, *, #902, .F. ) ;
#1204 = EDGE_CURVE ( 'NONE', #750, #261, #832, .T. ) ;
#1205 = CYLINDRICAL_SURFACE ( 'NONE', #23, 0.02250000000000008590 ) ;
#1206 =( GEOMETRIC_REPRESENTATION_CONTEXT ( 3 ) GLOBAL_UNCERTAINTY_ASSIGNED_CONTEXT ( ( #306 ) ) GLOBAL_UNIT_ASSIGNED_CONTEXT ( ( #554, #748, #110 ) ) REPRESENTATION_CONTEXT ( 'NONE', 'WORKASPACE' ) );
#1207 = CARTESIAN_POINT ( 'NONE',  ( -2.999999999999999112, -4.000000000000000000, 0.1880000000000000282 ) ) ;
#1208 = DIMENSIONAL_EXPONENTS ( 1.000000000000000000, 0.000000000000000000, 0.000000000000000000, 0.000000000000000000, 0.000000000000000000, 0.000000000000000000, 0.000000000000000000 ) ;
#1209 = DIRECTION ( 'NONE',  ( 0.000000000000000000, 1.000000000000000000, 0.000000000000000000 ) ) ;
#1210 = ORIENTED_EDGE ( 'NONE', *, *, #1115, .F. ) ;
#1211 = ORIENTED_EDGE ( 'NONE', *, *, #1038, .F. ) ;
#1212 = ORIENTED_EDGE ( 'NONE', *, *, #1057, .T. ) ;
#1213 = CARTESIAN_POINT ( 'NONE',  ( 5.000000000000000888, -4.000000000000000000, 0.000000000000000000 ) ) ;
#1214 = STYLED_ITEM ( 'NONE', ( #590 ), #241 ) ;
#1215 = PRODUCT_DEFINITION_SHAPE ( 'NONE', 'NONE',  #806 ) ;
#1216 = FACE_BOUND ( 'NONE', #976, .T. ) ;
#1217 = CARTESIAN_POINT ( 'NONE',  ( 5.000000000000000888, -4.000000000000000000, 0.000000000000000000 ) ) ;
#1218 = ORIENTED_EDGE ( 'NONE', *, *, #769, .F. ) ;
#1219 = EDGE_LOOP ( 'NONE', ( #1228, #402 ) ) ;
#1220 =( GEOMETRIC_REPRESENTATION_CONTEXT ( 3 ) GLOBAL_UNCERTAINTY_ASSIGNED_CONTEXT ( ( #1234 ) ) GLOBAL_UNIT_ASSIGNED_CONTEXT ( ( #21, #579, #959 ) ) REPRESENTATION_CONTEXT ( 'NONE', 'WORKASPACE' ) );
#1221 = CIRCLE ( 'NONE', #1035, 0.02250000000000034958 ) ;
#1222 = STYLED_ITEM ( 'NONE', ( #164 ), #382 ) ;
#1223 = EDGE_CURVE ( 'NONE', #398, #1122, #958, .T. ) ;
#1224 = ADVANCED_FACE ( 'NONE', ( #475 ), #588, .F. ) ;
#1225 = CARTESIAN_POINT ( 'NONE',  ( 5.000000000000000888, 3.999999999999999556, 0.000000000000000000 ) ) ;
#1226 = ORIENTED_EDGE ( 'NONE', *, *, #1038, .T. ) ;
#1227 = AXIS2_PLACEMENT_3D ( 'NONE', #46, #416, #998 ) ;
#1228 = ORIENTED_EDGE ( 'NONE', *, *, #1204, .T. ) ;
#1229 = EDGE_CURVE ( 'NONE', #63, #427, #930, .T. ) ;
#1230 = FILL_AREA_STYLE_COLOUR ( '', #1104 ) ;
#1231 = CIRCLE ( 'NONE', #680, 0.02250000000000008590 ) ;
#1232 = FILL_AREA_STYLE ('',( #747 ) ) ;
#1233 = CARTESIAN_POINT ( 'NONE',  ( 0.000000000000000000, -1.499999999999999778, 0.08999999999999999667 ) ) ;
#1234 = UNCERTAINTY_MEASURE_WITH_UNIT (LENGTH_MEASURE( 1.000000000000000082E-05 ), #21, 'distance_accuracy_value', 'NONE');
#1235 = ORIENTED_EDGE ( 'NONE', *, *, #791, .F. ) ;
#1236 = FILL_AREA_STYLE ('',( #527 ) ) ;
#1237 = VECTOR ( 'NONE', #1098, 39.37007874015748143 ) ;
#1238 = EDGE_LOOP ( 'NONE', ( #188, #618, #830, #227, #424, #1226, #1009, #350 ) ) ;
#1239 = CARTESIAN_POINT ( 'NONE',  ( -1.999999999999999112, -3.500000000000000000, 0.1880000000000000282 ) ) ;
#1240 =( NAMED_UNIT ( * ) SI_UNIT ( $, .STERADIAN. ) SOLID_ANGLE_UNIT ( ) );
#1241 = FACE_OUTER_BOUND ( 'NONE', #449, .T. ) ;
ENDSEC;
END-ISO-10303-21;
